<svg width="186" height="241" viewBox="0 0 186 241" fill="none" xmlns="http://www.w3.org/2000/svg">
<path d="M2.96316 199V193.68H14.3252C14.8318 193.68 15.2878 193.553 15.6932 193.3C16.0985 193.047 16.4152 192.717 16.6432 192.312C16.8965 191.907 17.0232 191.463 17.0232 190.982C17.0232 190.475 16.8965 190.019 16.6432 189.614C16.4152 189.209 16.0985 188.879 15.6932 188.626C15.2878 188.373 14.8318 188.246 14.3252 188.246H10.2212C8.67583 188.246 7.26983 187.942 6.00316 187.334C4.7365 186.726 3.72316 185.839 2.96316 184.674C2.2285 183.483 1.86116 182.065 1.86116 180.418C1.86116 178.797 2.21583 177.391 2.92516 176.2C3.6345 175.009 4.59716 174.085 5.81316 173.426C7.02916 172.742 8.37183 172.4 9.84116 172.4H21.5832V177.72H10.5632C10.1072 177.72 9.68916 177.834 9.30916 178.062C8.92916 178.29 8.63783 178.594 8.43516 178.974C8.2325 179.354 8.13116 179.772 8.13116 180.228C8.13116 180.684 8.2325 181.102 8.43516 181.482C8.63783 181.837 8.92916 182.128 9.30916 182.356C9.68916 182.584 10.1072 182.698 10.5632 182.698H14.8572C16.5545 182.698 18.0238 183.027 19.2652 183.686C20.5318 184.319 21.5072 185.219 22.1912 186.384C22.9005 187.524 23.2552 188.867 23.2552 190.412C23.2552 192.236 22.8878 193.794 22.1532 195.086C21.4438 196.353 20.4812 197.328 19.2652 198.012C18.0492 198.671 16.7065 199 15.2372 199H2.96316ZM27.6698 199V171.26H33.5598V180.798C34.3198 180.19 35.1558 179.747 36.0678 179.468C36.9798 179.189 37.8918 179.05 38.8038 179.05C40.5772 179.05 42.0718 179.43 43.2878 180.19C44.5292 180.95 45.4538 181.989 46.0618 183.306C46.6952 184.623 47.0118 186.118 47.0118 187.79V199H41.1218V188.018C41.1218 187.283 40.9445 186.637 40.5898 186.08C40.2605 185.497 39.8045 185.041 39.2218 184.712C38.6645 184.357 38.0438 184.18 37.3598 184.18C36.6758 184.18 36.0425 184.345 35.4598 184.674C34.8772 185.003 34.4085 185.447 34.0538 186.004C33.7245 186.561 33.5598 187.195 33.5598 187.904V199H27.6698ZM62.0718 199.456C60.0705 199.456 58.2718 199.013 56.6758 198.126C55.0798 197.239 53.8132 196.023 52.8758 194.478C51.9638 192.933 51.5078 191.197 51.5078 189.272C51.5078 187.321 51.9638 185.586 52.8758 184.066C53.8132 182.521 55.0798 181.305 56.6758 180.418C58.2718 179.506 60.0705 179.05 62.0718 179.05C64.0732 179.05 65.8592 179.506 67.4298 180.418C69.0258 181.305 70.2798 182.521 71.1918 184.066C72.1292 185.586 72.5978 187.321 72.5978 189.272C72.5978 191.197 72.1292 192.933 71.1918 194.478C70.2798 196.023 69.0258 197.239 67.4298 198.126C65.8338 199.013 64.0478 199.456 62.0718 199.456ZM62.0718 194.326C63.0092 194.326 63.8198 194.098 64.5038 193.642C65.1878 193.186 65.7198 192.578 66.0998 191.818C66.4798 191.058 66.6698 190.197 66.6698 189.234C66.6698 188.297 66.4798 187.448 66.0998 186.688C65.7198 185.928 65.1878 185.32 64.5038 184.864C63.8198 184.408 63.0092 184.18 62.0718 184.18C61.1345 184.18 60.3112 184.408 59.6018 184.864C58.9178 185.32 58.3858 185.928 58.0058 186.688C57.6258 187.448 57.4358 188.297 57.4358 189.234C57.4358 190.197 57.6258 191.058 58.0058 191.818C58.3858 192.578 58.9178 193.186 59.6018 193.642C60.3112 194.098 61.1345 194.326 62.0718 194.326ZM87.3936 179.05C89.0403 179.05 90.4969 179.316 91.7636 179.848C93.0556 180.355 94.1449 181.089 95.0316 182.052C95.9436 182.989 96.6403 184.104 97.1216 185.396C97.6029 186.663 97.8436 188.069 97.8436 189.614C97.8436 191.539 97.4383 193.249 96.6276 194.744C95.8423 196.213 94.7529 197.366 93.3596 198.202C91.9663 199.038 90.3449 199.456 88.4956 199.456C87.7103 199.456 86.9629 199.355 86.2536 199.152C85.5696 198.949 84.9363 198.658 84.3536 198.278C83.7963 197.898 83.3276 197.429 82.9476 196.872H82.8336V207.246H76.9436V189.614C76.9436 187.461 77.3743 185.599 78.2356 184.028C79.0969 182.457 80.3129 181.241 81.8836 180.38C83.4543 179.493 85.2909 179.05 87.3936 179.05ZM87.3936 184.142C86.4816 184.142 85.6836 184.37 84.9996 184.826C84.3409 185.257 83.8343 185.865 83.4796 186.65C83.1249 187.41 82.9476 188.271 82.9476 189.234C82.9476 190.197 83.1249 191.058 83.4796 191.818C83.8343 192.578 84.3409 193.186 84.9996 193.642C85.6836 194.073 86.4816 194.288 87.3936 194.288C88.3056 194.288 89.0909 194.073 89.7496 193.642C90.4083 193.186 90.9149 192.578 91.2696 191.818C91.6496 191.058 91.8396 190.197 91.8396 189.234C91.8396 188.271 91.6496 187.41 91.2696 186.65C90.9149 185.865 90.4083 185.257 89.7496 184.826C89.0909 184.37 88.3056 184.142 87.3936 184.142ZM112.626 179.05C114.273 179.05 115.729 179.316 116.996 179.848C118.288 180.355 119.377 181.089 120.264 182.052C121.176 182.989 121.873 184.104 122.354 185.396C122.835 186.663 123.076 188.069 123.076 189.614C123.076 191.539 122.671 193.249 121.86 194.744C121.075 196.213 119.985 197.366 118.592 198.202C117.199 199.038 115.577 199.456 113.728 199.456C112.943 199.456 112.195 199.355 111.486 199.152C110.802 198.949 110.169 198.658 109.586 198.278C109.029 197.898 108.56 197.429 108.18 196.872H108.066V207.246H102.176V189.614C102.176 187.461 102.607 185.599 103.468 184.028C104.329 182.457 105.545 181.241 107.116 180.38C108.687 179.493 110.523 179.05 112.626 179.05ZM112.626 184.142C111.714 184.142 110.916 184.37 110.232 184.826C109.573 185.257 109.067 185.865 108.712 186.65C108.357 187.41 108.18 188.271 108.18 189.234C108.18 190.197 108.357 191.058 108.712 191.818C109.067 192.578 109.573 193.186 110.232 193.642C110.916 194.073 111.714 194.288 112.626 194.288C113.538 194.288 114.323 194.073 114.982 193.642C115.641 193.186 116.147 192.578 116.502 191.818C116.882 191.058 117.072 190.197 117.072 189.234C117.072 188.271 116.882 187.41 116.502 186.65C116.147 185.865 115.641 185.257 114.982 184.826C114.323 184.37 113.538 184.142 112.626 184.142ZM127.56 199V179.506H133.488V199H127.56ZM130.524 177.302C129.587 177.302 128.776 176.96 128.092 176.276C127.408 175.592 127.066 174.781 127.066 173.844C127.066 172.907 127.408 172.096 128.092 171.412C128.776 170.703 129.587 170.348 130.524 170.348C131.462 170.348 132.272 170.703 132.956 171.412C133.64 172.096 133.982 172.907 133.982 173.844C133.982 174.781 133.64 175.592 132.956 176.276C132.272 176.96 131.462 177.302 130.524 177.302ZM138.803 199V187.79C138.803 186.169 139.195 184.699 139.981 183.382C140.766 182.065 141.881 181.013 143.325 180.228C144.794 179.443 146.529 179.05 148.531 179.05C150.557 179.05 152.28 179.443 153.699 180.228C155.143 181.013 156.245 182.065 157.005 183.382C157.765 184.699 158.145 186.169 158.145 187.79V199H152.255V187.942C152.255 187.258 152.09 186.637 151.761 186.08C151.431 185.497 150.975 185.041 150.393 184.712C149.835 184.357 149.202 184.18 148.493 184.18C147.758 184.18 147.099 184.357 146.517 184.712C145.959 185.041 145.516 185.497 145.187 186.08C144.857 186.637 144.693 187.258 144.693 187.942V199H138.803ZM166.517 206.714V201.66H176.245C176.625 201.66 176.941 201.533 177.195 201.28C177.448 201.052 177.575 200.761 177.575 200.406V196.112H177.461C176.954 196.695 176.409 197.189 175.827 197.594C175.269 197.999 174.636 198.303 173.927 198.506C173.243 198.709 172.47 198.81 171.609 198.81C169.886 198.81 168.341 198.405 166.973 197.594C165.63 196.758 164.566 195.605 163.781 194.136C163.021 192.667 162.641 190.995 162.641 189.12C162.641 187.271 163.033 185.586 163.819 184.066C164.629 182.546 165.807 181.33 167.353 180.418C168.898 179.506 170.785 179.05 173.015 179.05C175.143 179.05 176.979 179.493 178.525 180.38C180.095 181.241 181.311 182.47 182.173 184.066C183.034 185.637 183.465 187.486 183.465 189.614V201.014C183.465 202.762 182.945 204.143 181.907 205.156C180.893 206.195 179.487 206.714 177.689 206.714H166.517ZM173.053 193.87C173.965 193.87 174.75 193.667 175.409 193.262C176.067 192.831 176.574 192.261 176.929 191.552C177.283 190.843 177.461 190.057 177.461 189.196C177.461 188.284 177.283 187.448 176.929 186.688C176.574 185.928 176.067 185.333 175.409 184.902C174.75 184.446 173.965 184.218 173.053 184.218C172.166 184.218 171.381 184.433 170.697 184.864C170.038 185.295 169.531 185.877 169.177 186.612C168.822 187.347 168.645 188.17 168.645 189.082C168.645 189.969 168.822 190.779 169.177 191.514C169.531 192.223 170.038 192.793 170.697 193.224C171.381 193.655 172.166 193.87 173.053 193.87ZM40.6774 236V209.4H52.1154C53.8887 209.4 55.51 209.805 56.9794 210.616C58.474 211.427 59.6647 212.554 60.5514 213.998C61.438 215.417 61.8814 217.063 61.8814 218.938C61.8814 220.813 61.438 222.485 60.5514 223.954C59.6647 225.398 58.4867 226.525 57.0174 227.336C55.548 228.147 53.914 228.552 52.1154 228.552H47.0614V236H40.6774ZM47.0614 223.194H51.3934C52.1534 223.194 52.8374 223.029 53.4454 222.7C54.0534 222.371 54.5474 221.889 54.9274 221.256C55.3074 220.623 55.4974 219.863 55.4974 218.976C55.4974 218.089 55.3074 217.329 54.9274 216.696C54.5474 216.063 54.0407 215.581 53.4074 215.252C52.7994 214.897 52.128 214.72 51.3934 214.72H47.0614V223.194ZM73.1043 236.456C71.3816 236.456 69.8616 236.013 68.5443 235.126C67.2269 234.239 66.2009 233.049 65.4663 231.554C64.7316 230.034 64.3643 228.324 64.3643 226.424C64.3643 224.448 64.7949 222.687 65.6563 221.142C66.5176 219.571 67.7336 218.33 69.3043 217.418C70.9003 216.506 72.7749 216.05 74.9283 216.05C77.1069 216.05 78.9563 216.506 80.4763 217.418C82.0216 218.305 83.1996 219.533 84.0103 221.104C84.8463 222.649 85.2643 224.385 85.2643 226.31V236H79.4883V232.884H79.3363C78.9816 233.568 78.5256 234.189 77.9683 234.746C77.4109 235.278 76.7269 235.696 75.9163 236C75.1309 236.304 74.1936 236.456 73.1043 236.456ZM74.8523 231.364C75.7389 231.364 76.5116 231.149 77.1703 230.718C77.8543 230.262 78.3736 229.641 78.7283 228.856C79.0829 228.071 79.2603 227.197 79.2603 226.234C79.2603 225.297 79.0829 224.448 78.7283 223.688C78.3736 222.928 77.8543 222.333 77.1703 221.902C76.5116 221.446 75.7389 221.218 74.8523 221.218C73.9403 221.218 73.1423 221.446 72.4583 221.902C71.7743 222.333 71.2549 222.928 70.9003 223.688C70.5456 224.448 70.3683 225.297 70.3683 226.234C70.3683 227.197 70.5456 228.071 70.9003 228.856C71.2549 229.641 71.7743 230.262 72.4583 230.718C73.1423 231.149 73.9403 231.364 74.8523 231.364ZM98.182 236.456C96.8393 236.456 95.5853 236.19 94.42 235.658C93.28 235.126 92.3553 234.315 91.646 233.226C90.962 232.137 90.62 230.769 90.62 229.122V216.506H96.51V229.882C96.51 230.186 96.586 230.465 96.738 230.718C96.89 230.971 97.0927 231.174 97.346 231.326C97.5993 231.478 97.878 231.554 98.182 231.554C98.486 231.554 98.7647 231.478 99.018 231.326C99.2713 231.174 99.474 230.971 99.626 230.718C99.778 230.465 99.854 230.186 99.854 229.882V223.384C99.854 221.813 100.183 220.483 100.842 219.394C101.501 218.305 102.4 217.481 103.54 216.924C104.705 216.341 106.01 216.05 107.454 216.05C108.898 216.05 110.19 216.341 111.33 216.924C112.47 217.481 113.369 218.305 114.028 219.394C114.687 220.483 115.016 221.813 115.016 223.384V229.882C115.016 230.186 115.092 230.465 115.244 230.718C115.396 230.971 115.599 231.174 115.852 231.326C116.131 231.478 116.422 231.554 116.726 231.554C117.03 231.554 117.309 231.478 117.562 231.326C117.815 231.174 118.018 230.971 118.17 230.718C118.322 230.465 118.398 230.186 118.398 229.882V216.506H124.288V229.122C124.288 230.769 123.933 232.137 123.224 233.226C122.54 234.315 121.615 235.126 120.45 235.658C119.31 236.19 118.069 236.456 116.726 236.456C115.383 236.456 114.129 236.19 112.964 235.658C111.824 235.126 110.899 234.315 110.19 233.226C109.481 232.137 109.126 230.769 109.126 229.122V222.662C109.126 222.333 109.05 222.041 108.898 221.788C108.746 221.535 108.543 221.332 108.29 221.18C108.037 221.028 107.758 220.952 107.454 220.952C107.15 220.952 106.859 221.028 106.58 221.18C106.327 221.332 106.124 221.535 105.972 221.788C105.82 222.041 105.744 222.333 105.744 222.662V229.122C105.744 230.769 105.389 232.137 104.68 233.226C103.996 234.315 103.071 235.126 101.906 235.658C100.766 236.19 99.5247 236.456 98.182 236.456ZM129.732 236V231.326H139.118C139.372 231.326 139.6 231.275 139.802 231.174C140.005 231.047 140.17 230.883 140.296 230.68C140.423 230.477 140.486 230.262 140.486 230.034C140.486 229.781 140.423 229.553 140.296 229.35C140.17 229.147 140.005 228.995 139.802 228.894C139.6 228.767 139.372 228.704 139.118 228.704H135.698C134.432 228.704 133.279 228.501 132.24 228.096C131.227 227.665 130.416 227.007 129.808 226.12C129.226 225.208 128.934 224.03 128.934 222.586C128.934 221.471 129.2 220.458 129.732 219.546C130.29 218.634 131.037 217.899 131.974 217.342C132.937 216.785 133.988 216.506 135.128 216.506H144.514V221.218H136.04C135.686 221.218 135.382 221.332 135.128 221.56C134.9 221.788 134.786 222.067 134.786 222.396C134.786 222.751 134.9 223.055 135.128 223.308C135.382 223.536 135.686 223.65 136.04 223.65H139.384C140.803 223.65 142.019 223.865 143.032 224.296C144.071 224.701 144.869 225.36 145.426 226.272C146.009 227.184 146.3 228.362 146.3 229.806C146.3 230.946 146.009 231.985 145.426 232.922C144.869 233.859 144.109 234.607 143.146 235.164C142.209 235.721 141.145 236 139.954 236H129.732Z" fill="#343738"/>
<g clip-path="url(#clip0_277_5992)">
<path d="M90.9549 32.0854C89.4339 30.8928 89.622 31.0399 88.3754 29.3207C87.6462 28.3139 86.823 27.253 85.9919 26.3237C84.8785 25.0846 83.9768 23.6829 83.1614 23.59C82.2676 23.4893 81.0994 24.5812 79.8527 25.588C78.904 26.3547 77.9083 27.2452 77.0458 28.1281C75.8775 29.3207 74.5995 30.0874 74.1134 30.5133C72.8041 31.6672 73.3058 33.2005 71.526 35.0437C70.3029 36.3137 70.0912 35.2528 68.0605 35.9033C67.0804 36.213 65.9514 36.5615 64.7832 37.1656C63.8109 37.669 62.6897 38.1259 61.694 38.8925C60.8158 39.574 59.7417 40.2245 58.9184 41.1538C58.1814 41.9825 57.4366 42.9737 56.8015 44.0347C56.2291 44.9872 55.9077 46.1721 55.4529 47.326C54.9981 48.4799 54.4258 49.5176 54.0102 50.6018C53.5712 51.7479 53.7593 53.0722 53.3987 54.1719C53.0145 55.3412 52.1599 56.3325 51.9168 57.4632C51.6581 58.6558 52.0266 59.8871 51.9795 61.0487C51.9325 62.2104 51.7286 63.3875 51.9717 64.5646C52.2148 65.7417 52.8342 66.6633 53.3752 67.7939C53.8613 68.8007 53.8221 70.2024 54.5983 71.2246C55.2726 72.1075 56.2997 72.8432 57.217 73.7492C58.0168 74.5314 58.9498 75.2903 59.9455 76.088C60.8237 76.7927 61.9135 77.3348 62.9642 78.0628C63.9285 78.7288 64.9713 79.2167 65.9357 79.7897C66.9001 80.3628 67.6371 81.5089 68.6486 82.0123C69.66 82.5157 70.8282 82.8719 71.8867 83.2979C72.9452 83.7238 74.0507 84.1807 75.1327 84.5369C76.2147 84.8932 77.4535 84.8622 78.5669 85.141C79.6802 85.4198 80.7857 85.7992 81.9148 86.0083C83.0438 86.2174 84.2199 86.14 85.3725 86.2794C86.525 86.4188 87.6149 87.0306 88.7674 87.1158C89.92 87.2009 91.0804 87.0925 92.2408 87.139C93.4012 87.1855 94.5381 87.41 95.7063 87.4178C96.8746 87.4255 98.0114 87.2009 99.1718 87.1855C100.332 87.17 101.477 87.3636 102.645 87.3326C103.813 87.3016 104.942 87.3016 106.111 87.2706C107.279 87.2397 108.408 87.0073 109.568 86.9764C110.729 86.9454 111.866 86.8602 113.034 86.837C114.312 86.806 115.551 86.9918 116.711 86.8989C117.989 86.7982 119.22 86.6511 120.365 86.473C121.635 86.2716 122.866 86.0238 123.979 85.7373C125.226 85.412 126.253 84.5911 127.312 84.1575C128.496 83.6696 129.593 83.1739 130.565 82.5544C131.624 81.8729 132.486 81.0443 133.317 80.2157C134.149 79.387 135.231 78.6281 135.881 77.6136C136.532 76.5991 136.767 75.3755 137.214 74.2294C137.661 73.0832 137.912 71.9836 138.194 70.7755C138.469 69.6448 139.127 68.5374 139.3 67.3061C139.472 66.0747 138.931 64.8124 138.884 63.6121C138.837 62.4117 139.041 61.1339 138.814 59.9413C138.586 58.7487 138.226 57.5406 137.834 56.3945C137.442 55.2483 137.293 53.9163 136.759 52.8321C136.226 51.7479 135.207 50.8264 134.564 49.8119C133.882 48.7354 133.302 47.628 132.565 46.7064C131.749 45.6765 131.012 44.6387 130.205 43.8333C129.209 42.8421 128.143 42.0986 127.288 41.5023C126.316 40.8208 125.508 40.0309 124.669 39.4888C123.611 38.8151 122.325 38.7919 121.517 38.335C119.698 37.305 119.212 38.1491 118.593 36.6467C117.856 34.881 118.977 34.8578 118.914 32.7746C118.875 31.5433 118.914 30.1416 118.64 28.9412C118.303 27.4698 117.644 26.0449 116.688 25.5493C115.833 25.1078 114.555 25.2317 113.41 25.6422C112.501 25.9752 111.795 26.9742 110.87 27.5782C109.945 28.1823 108.855 28.4766 108.087 29.1038C107.059 29.9402 106.228 30.7456 105.727 31.2025C104.982 31.8763 104.104 32.5887 103.265 33.2005C102.128 34.0292 101.108 34.8268 100.52 34.8268C100.16 34.8268 98.7955 34.4938 97.2195 34.1221C96.1689 33.8743 95.0399 33.4716 93.9971 33.2083C92.2094 32.7514 92.2957 33.1386 90.9863 32.1086L90.9549 32.0854Z" fill="#283E60"/>
<path d="M71.9024 38.761C70.5303 39.8839 70.8518 39.6128 68.9857 40.666C68.0919 41.1694 67.0961 41.8199 66.0455 42.6021C65.1595 43.2604 64.1324 43.8876 63.2464 44.755C62.4388 45.5449 61.3882 46.2496 60.6669 47.2254C59.9847 48.1392 59.6554 49.3473 59.1223 50.4315C58.6205 51.446 58.1187 52.5147 57.7972 53.6918C57.4993 54.776 57.0681 55.9221 56.9661 57.1457C56.8642 58.3693 57.1543 59.5774 57.2014 60.7468C57.2484 61.9162 57.4209 63.132 57.6404 64.2936C57.86 65.4553 58.3774 66.5395 58.8087 67.6469C59.2399 68.7543 59.4908 69.9314 60.1494 70.9537C60.808 71.9759 61.4196 72.9672 62.282 73.8655C63.0818 74.7019 64.2971 75.1123 65.3085 75.8635C66.2258 76.5527 67.151 77.2575 68.2644 77.8692C69.268 78.4268 70.0755 79.5188 71.2438 80.0066C72.3023 80.4481 73.5646 80.5875 74.7642 80.9747C75.8619 81.3309 77.085 81.4316 78.3081 81.7414C79.4372 82.0201 80.5427 82.5932 81.7815 82.8255C82.9262 83.0424 84.118 83.2825 85.3568 83.4606C86.5172 83.6309 87.7011 83.9407 88.9478 84.0801C90.1944 84.2195 91.4019 83.8942 92.6015 84.0027C93.8011 84.1111 95.0164 84.2582 96.2081 84.3434C97.3999 84.4286 98.6465 84.2427 99.8383 84.2969C101.03 84.3511 102.261 84.4286 103.453 84.4518C104.645 84.4751 105.883 84.6687 107.067 84.6532C108.251 84.6377 109.514 84.8235 110.697 84.7616C111.936 84.6919 113.144 84.6067 114.312 84.4828C115.551 84.3512 116.782 84.3124 117.926 84.1111C119.157 83.8865 120.208 83.0734 121.314 82.7558C122.529 82.4151 123.862 82.5622 124.912 82.0976C126.065 81.5865 127.225 81.0521 128.158 80.3861C129.091 79.7201 129.781 78.6437 130.503 77.7763C131.224 76.909 131.718 75.8558 132.196 74.7948C132.651 73.788 133.365 72.7968 133.623 71.6274C133.858 70.5587 133.623 69.3584 133.702 68.1657C133.772 67.0738 134.156 65.9277 134.109 64.7351C134.062 63.5425 134.007 62.4118 133.835 61.3353C133.647 60.1892 132.855 59.2057 132.541 58.1525C132.212 57.0451 132.157 55.8679 131.702 54.8689C131.224 53.8157 130.338 53.0103 129.758 52.0733C129.154 51.082 128.566 50.145 127.884 49.2776C127.163 48.3638 126.332 47.6126 125.563 46.8382C124.732 46.0018 124.293 44.8015 123.462 44.1122C122.529 43.3455 121.51 42.757 120.639 42.1607C119.581 41.4405 118.413 41.1384 117.558 40.666C115.723 39.6516 115.19 40.5963 114.61 39.0088C113.873 37.003 114.728 36.8869 114.633 34.765C114.555 33.069 114.437 31.2801 113.567 30.707C113.034 30.3585 111.474 31.1716 109.859 32.3178C108.8 33.0612 107.844 34.1841 106.84 35.0128C105.131 36.4222 105.601 36.9178 103.625 37.3825C102.034 37.762 102.002 37.6458 100.364 37.5761C98.7249 37.5064 98.7328 37.2431 97.0941 37.1734C95.4554 37.1037 95.4397 37.4987 93.7932 37.429C92.1467 37.3593 92.1702 36.8946 90.5237 36.8327C88.8772 36.7707 88.6655 37.6845 87.1366 37.0727C85.4744 36.4067 86.5721 35.3767 85.6077 33.6885C85.0353 32.6895 84.5806 31.4427 83.8828 30.5366C82.9341 29.2898 81.6639 28.2521 80.8563 28.3295C80.1899 28.3915 79.5077 29.7544 78.4493 30.9238C77.7436 31.706 76.5675 32.2791 75.854 33.2316C75.1405 34.1841 74.8504 35.4464 74.2624 36.3061C73.149 37.9323 73.251 37.6613 71.9181 38.7532L71.9024 38.761Z" fill="white"/>
<path opacity="0.51" d="M92.6092 77.6292C98.0035 78.0628 100.05 78.6359 101.508 80.0763C102.967 81.5167 107.741 85.3501 99.8147 84.2969C91.8879 83.2437 92.178 81.8033 92.6092 80.7965C93.0405 79.7898 92.6092 77.6292 92.6092 77.6292Z" fill="#5C658A"/>
<mask id="mask0_277_5992" style="mask-type:luminance" maskUnits="userSpaceOnUse" x="56" y="28" width="79" height="57">
<path d="M71.9024 38.761C70.5303 39.8839 70.8518 39.6128 68.9857 40.666C68.0919 41.1694 67.0961 41.8199 66.0455 42.6021C65.1595 43.2604 64.1324 43.8876 63.2464 44.755C62.4388 45.5449 61.3882 46.2496 60.6669 47.2254C59.9847 48.1392 59.6554 49.3473 59.1223 50.4315C58.6205 51.446 58.1187 52.5147 57.7972 53.6918C57.4993 54.776 57.0681 55.9221 56.9661 57.1457C56.8642 58.3693 57.1543 59.5774 57.2014 60.7468C57.2484 61.9162 57.4209 63.132 57.6404 64.2936C57.86 65.4553 58.3774 66.5395 58.8087 67.6469C59.2399 68.7543 59.4908 69.9314 60.1494 70.9537C60.808 71.9759 61.4196 72.9672 62.282 73.8655C63.0818 74.7019 64.2971 75.1123 65.3085 75.8635C66.2258 76.5527 67.151 77.2575 68.2644 77.8692C69.268 78.4268 70.0755 79.5188 71.2438 80.0066C72.3023 80.4481 73.5646 80.5875 74.7642 80.9747C75.8619 81.3309 77.085 81.4316 78.3081 81.7414C79.4372 82.0201 80.5427 82.5932 81.7815 82.8255C82.9262 83.0424 84.118 83.2825 85.3568 83.4606C86.5172 83.6309 87.7011 83.9407 88.9478 84.0801C90.1944 84.2195 91.4019 83.8942 92.6015 84.0027C93.8011 84.1111 95.0164 84.2582 96.2081 84.3434C97.3999 84.4286 98.6465 84.2427 99.8383 84.2969C101.03 84.3511 102.261 84.4286 103.453 84.4518C104.645 84.4751 105.883 84.6687 107.067 84.6532C108.251 84.6377 109.514 84.8235 110.697 84.7616C111.936 84.6919 113.144 84.6067 114.312 84.4828C115.551 84.3512 116.782 84.3124 117.926 84.1111C119.157 83.8865 120.208 83.0734 121.314 82.7558C122.529 82.4151 123.862 82.5622 124.912 82.0976C126.065 81.5865 127.225 81.0521 128.158 80.3861C129.091 79.7201 129.781 78.6437 130.503 77.7763C131.224 76.909 131.718 75.8558 132.196 74.7948C132.651 73.788 133.365 72.7968 133.623 71.6274C133.858 70.5587 133.623 69.3584 133.702 68.1657C133.772 67.0738 134.156 65.9277 134.109 64.7351C134.062 63.5425 134.007 62.4118 133.835 61.3353C133.647 60.1892 132.855 59.2057 132.541 58.1525C132.212 57.0451 132.157 55.8679 131.702 54.8689C131.224 53.8157 130.338 53.0103 129.758 52.0733C129.154 51.082 128.566 50.145 127.884 49.2776C127.163 48.3638 126.332 47.6126 125.563 46.8382C124.732 46.0018 124.293 44.8015 123.462 44.1122C122.529 43.3455 121.51 42.757 120.639 42.1607C119.581 41.4405 118.413 41.1384 117.558 40.666C115.723 39.6516 115.19 40.5963 114.61 39.0088C113.873 37.003 114.728 36.8869 114.633 34.765C114.555 33.069 114.437 31.2801 113.567 30.707C113.034 30.3585 111.474 31.1716 109.859 32.3178C108.8 33.0612 107.844 34.1841 106.84 35.0128C105.131 36.4222 105.601 36.9178 103.625 37.3825C102.034 37.762 102.002 37.6458 100.364 37.5761C98.7249 37.5064 98.7328 37.2431 97.0941 37.1734C95.4554 37.1037 95.4397 37.4987 93.7932 37.429C92.1467 37.3593 92.1702 36.8946 90.5237 36.8327C88.8772 36.7707 88.6655 37.6845 87.1366 37.0727C85.4744 36.4067 86.5721 35.3767 85.6077 33.6885C85.0353 32.6895 84.5806 31.4427 83.8828 30.5366C82.9341 29.2898 81.6639 28.2521 80.8563 28.3295C80.1899 28.3915 79.5077 29.7544 78.4493 30.9238C77.7436 31.706 76.5675 32.2791 75.854 33.2316C75.1405 34.1841 74.8504 35.4464 74.2624 36.3061C73.149 37.9323 73.251 37.6613 71.9181 38.7532L71.9024 38.761Z" fill="white"/>
</mask>
<g mask="url(#mask0_277_5992)">
<path d="M129.499 48.7664C129.264 47.4577 128.417 46.4432 127.892 45.4287C127.304 44.2825 126.943 43.0125 126.088 42.1839C125.187 41.301 123.964 40.7976 122.897 40.2168C121.776 39.605 120.545 39.365 119.408 39.0165C118.122 38.6215 116.978 37.8936 115.888 37.7309C113.732 37.4134 113.998 38.0639 112.242 37.4754C111.583 36.6932 109.968 37.1114 107.977 37.2585C106.675 37.3515 105.17 37.3515 103.594 37.3979C102.543 37.4289 100.959 37.367 99.2345 37.3437C97.8076 37.3282 96.2786 37.3282 94.8673 37.367C94.6556 37.274 93.7853 36.3757 92.523 35.1986C91.8174 34.5481 91.1352 33.6652 90.2885 32.8908C89.5044 32.1783 88.689 31.4349 87.8892 30.7379C87.0189 29.9867 85.9918 29.4833 85.2235 28.9025C84.0003 27.981 82.9967 27.0129 82.4401 27.0129C81.1777 27.0129 80.0957 27.9035 78.951 28.3604C77.8063 28.8173 76.7086 29.1891 75.6737 29.9557C74.7328 30.6605 74.0428 31.6904 73.1412 32.5965C72.2944 33.4406 71.2045 34.0989 70.3891 35.0514C69.5737 36.004 68.7661 36.8713 67.9899 37.8316C67.2137 38.7919 66.3199 39.636 65.5437 40.5808C64.7674 41.5256 64.2264 42.695 63.411 43.5933C62.6035 44.4839 62.0389 45.3048 61.5607 46.0018C60.7531 47.1789 60.1415 47.992 60.2983 48.7045C60.5492 49.8429 62.3055 50.323 64.0383 50.2069C65.5437 50.0984 67.0098 49.4557 67.739 48.4799C68.6328 47.2718 69.3463 46.3657 70.4126 45.8701C71.2829 45.4674 72.4747 45.3048 74.1055 45.1731C75.117 45.0879 76.3479 45.4519 77.8298 45.4209C78.9118 45.3977 80.1349 45.1576 81.5384 45.1344C81.5384 45.1344 83.0438 44.0115 84.9804 43.0357C86.1565 42.4394 87.6776 42.2303 88.7831 41.6727C89.1829 41.4714 89.5122 40.8983 90.2414 40.8906C91.5978 40.8751 93.0719 41.0919 94.1617 41.7889C95.2515 42.4859 95.6357 43.934 96.263 45.1034C96.8432 46.1876 97.8389 46.8381 98.6308 47.3647C99.5952 48.0075 100.677 48.294 101.54 48.72C102.543 49.2233 103.359 49.7887 103.586 50.989C103.837 52.2746 104.652 52.8321 105.758 53.1884C106.636 53.4672 107.467 53.715 108.283 54.6908C108.808 55.3258 109.443 56.0383 109.764 57.347C110.023 58.3925 110.878 59.3295 112.101 59.8174C113.042 60.1892 114.273 60.0807 115.535 60.1349C116.617 60.1737 117.73 59.9955 118.906 59.7942C120.02 59.6006 121.188 59.5619 122.262 59.1514C123.336 58.741 124.152 57.8891 125.077 57.2618C126.002 56.6346 127.053 56.1079 127.719 55.2174C128.386 54.3268 129.201 53.3975 129.452 52.2591C129.679 51.2368 129.734 50.0133 129.515 48.7897L129.499 48.7664Z" fill="#67778F"/>
<path opacity="0.51" d="M68.233 34.8345C64.4539 38.3194 69.4013 41.8818 76.3088 41.6107C83.2242 41.3397 93.2522 37.181 90.312 32.5345C87.3718 27.888 75.4855 28.1435 68.233 34.8345Z" fill="#5C658A"/>
<path d="M79.3353 22.0101C74.6231 19.9115 71.1654 24.7438 74.0821 30.9392C76.9988 37.1346 77.2889 41.603 80.5035 37.1346C83.7181 32.6662 88.3833 26.0371 79.3353 22.0101Z" fill="#5C658A"/>
<path opacity="0.68" d="M113.324 43.3378C108.612 41.2391 105.154 46.0715 108.071 52.2669C110.988 58.4622 111.278 62.9306 114.492 58.4622C117.707 53.9938 122.372 47.3648 113.324 43.3378Z" fill="#5C658A"/>
<path opacity="0.51" d="M109.913 53.9628C106.134 57.4477 109.325 62.466 116.241 62.1872C123.156 61.9161 127.602 58.8959 124.669 54.2493C121.737 49.6028 117.174 47.2718 109.921 53.9628H109.913Z" fill="#5C658A"/>
<path d="M114.202 29.0728C114.202 29.0728 116.609 36.3524 116.029 39.2332C115.449 42.1141 102.771 40.9447 103.602 37.3901C104.433 33.8355 107.059 31.5277 110.125 29.5142C113.191 27.5007 114.21 29.0806 114.21 29.0806L114.202 29.0728Z" fill="#5C658A"/>
<path opacity="0.51" d="M104.613 36.5073C106.291 38.0407 109.02 42.0367 100.16 42.2535C91.2999 42.4704 89.0026 45.2815 85.7174 40.9602C82.4323 36.639 83.4202 34.5868 87.905 34.4783C92.3898 34.3699 104.613 36.5151 104.613 36.5151V36.5073Z" fill="#5C658A"/>
</g>
<path d="M98.6229 21.8166C97.3292 21.7469 96.2394 21.2668 95.3064 21.3365C93.9656 21.4449 92.9777 21.9793 92.1231 22.3432C91.0882 22.7924 90.4531 23.59 89.5984 24.3722C88.3126 25.5493 87.1757 25.1699 86.6818 26.0837C86.3917 26.6258 86.1643 27.617 85.9996 29.3285C85.7801 31.6285 84.7138 31.6982 83.3103 31.4659C81.9069 31.2336 80.4328 30.7225 79.8448 32.5966C79.4214 33.9441 79.2803 35.2296 79.7978 36.3138C80.2368 37.2508 81.1698 38.0408 82.738 38.6216C83.7102 38.9778 84.9333 39.3263 86.4701 39.5044C87.5834 39.6361 88.8614 39.8839 90.3041 39.9071C91.5821 39.9226 92.8131 39.9536 93.9735 39.9768C95.275 40.0078 96.506 39.7677 97.6507 39.7909C98.9836 39.8219 100.207 40.2091 101.32 40.2246C102.739 40.2479 103.962 39.5973 104.997 39.5741C106.926 39.5276 108.118 39.6283 108.533 39.2411C109.192 38.6371 109.121 37.2663 109.082 35.4542C109.059 34.2538 109.27 32.8676 109.004 31.4349C108.839 30.5211 108.682 29.4447 108.314 28.3682C107.992 27.4157 107.671 26.347 107.044 25.4564C106.471 24.6433 105.483 24.1244 104.55 23.4971C103.751 22.9628 102.825 22.6143 101.689 22.3045C100.771 22.049 99.7833 21.8631 98.6072 21.8011L98.6229 21.8166Z" fill="#283E60"/>
<path d="M87.7795 33.3091C86.8543 33.2626 85.5057 33.3091 83.8279 33.5259C82.6988 33.6808 82.3774 34.7805 82.5342 35.4387C82.691 36.097 83.1379 35.9498 84.5962 36.097C85.4352 36.1822 86.7681 36.732 88.3675 36.9643C89.575 37.1347 90.9471 36.9721 92.2486 37.1192C93.6129 37.2741 94.9536 37.4135 96.0905 37.4367C97.7684 37.4677 99.1875 37.2741 100.379 37.1425C102.606 36.8946 104.033 36.7862 104.637 36.7088C105.632 36.5849 106.024 34.9818 105.781 33.2549C105.625 32.1397 105.233 30.8542 104.95 29.6615C104.668 28.4689 103.884 27.3538 102.951 26.6258C102.018 25.8979 100.795 25.743 99.5403 25.5029C98.427 25.2861 97.2666 25.4564 96.0199 25.5803C94.883 25.6965 93.7932 25.8824 92.7347 26.3083C91.6135 26.7575 90.5629 27.1989 89.7867 27.9346C88.9007 28.771 88.5244 29.7312 88.4459 30.8542C88.3832 31.8377 88.2029 33.3323 87.7717 33.3168L87.7795 33.3091Z" fill="#015AA2"/>
<path d="M87.7795 33.3091C86.8543 33.2626 85.5057 33.3091 83.8279 33.5259C82.6988 33.6808 82.3774 34.7805 82.5342 35.4387C82.691 36.097 83.1379 35.9498 84.5962 36.097C85.4352 36.1822 86.7681 36.732 88.3675 36.9643C89.575 37.1347 90.9471 36.9721 92.2486 37.1192C93.6129 37.2741 94.9536 37.4135 96.0905 37.4367C97.7684 37.4677 99.1875 37.2741 100.379 37.1425C102.606 36.8946 104.033 36.7862 104.637 36.7088C105.632 36.5849 106.024 34.9818 105.781 33.2549C105.625 32.1397 105.233 30.8542 104.95 29.6615C104.668 28.4689 103.884 27.3538 102.951 26.6258C102.018 25.8979 100.795 25.743 99.5403 25.5029C98.427 25.2861 97.2666 25.4564 96.0199 25.5803C94.883 25.6965 93.7932 25.8824 92.7347 26.3083C91.6135 26.7575 90.5629 27.1989 89.7867 27.9346C88.9007 28.771 88.5244 29.7312 88.4459 30.8542C88.3832 31.8377 88.2029 33.3323 87.7717 33.3168L87.7795 33.3091Z" fill="#2773B0"/>
<path d="M89.5358 34.9586C89.5985 34.0913 88.9164 33.3788 87.8422 33.2859C87.8187 33.2859 87.803 33.3091 87.7795 33.3091C86.8543 33.2627 85.5057 33.3091 83.8279 33.526C82.6988 33.6808 82.3774 34.7805 82.5342 35.4388C82.691 36.097 83.1379 35.9499 84.5962 36.097C85.098 36.1512 85.7802 36.3681 86.5799 36.5772C87.4424 36.8095 89.4103 37.1038 89.4731 36.2209C89.4731 36.2209 89.5279 34.9586 89.5279 34.9509L89.5358 34.9586Z" fill="#EE1C25"/>
<path d="M42.9786 84.7229C43.7391 84.4751 44.9309 84.5138 46.4519 84.3124C47.4712 84.1808 48.5846 83.4761 49.8939 83.3599C50.9759 83.267 52.1677 83.298 53.43 83.2205C54.5434 83.1508 55.7352 83.3057 56.9661 83.2437C58.0952 83.1818 59.2791 83.2592 60.5022 83.2128C61.6469 83.1663 62.8152 82.8875 64.0226 82.8488C65.2301 82.8101 66.3513 82.5777 67.5509 82.539C68.7505 82.5003 69.8952 82.6939 71.087 82.6629C72.2787 82.6319 73.4313 82.8023 74.6231 82.7713C75.8148 82.7404 76.9674 82.4693 78.1513 82.4383C79.3352 82.4074 80.4956 81.9737 81.6796 81.9505C82.8635 81.9272 84.0474 82.5468 85.2235 82.5235C86.3996 82.5003 87.5835 82.5235 88.7596 82.508C89.9357 82.4926 91.1196 82.4306 92.2957 82.4151C93.4718 82.3996 94.6557 82.0356 95.8239 82.0124C96.9922 81.9892 98.1996 82.4229 99.3679 82.3996C100.536 82.3764 101.736 81.8808 102.896 81.8653C104.057 81.8498 105.272 81.5942 106.424 81.571C107.632 81.5478 108.816 81.5787 109.96 81.5632C111.184 81.54 112.375 82.1441 113.512 82.1208C114.751 82.0976 115.911 81.3542 117.033 81.3232C118.295 81.2922 119.502 81.8575 120.584 81.8188C121.909 81.7723 123.086 81.4316 124.105 81.3774C125.743 81.2922 126.998 81.5168 127.672 81.3929C128.848 81.1838 129.985 80.3861 131.24 80.208C132.494 80.0299 133.764 80.208 134.98 80.0918C136.266 79.9679 137.528 80.0531 138.688 80.0376C140.076 80.0222 141.378 79.7356 142.428 79.9292C144.028 80.2312 145.165 80.9902 145.439 81.9892C145.619 82.6474 145.47 83.871 145.58 85.4354C145.651 86.4344 146.121 87.5728 146.16 88.8506C146.192 89.9193 146.348 91.0809 146.348 92.2967C146.348 93.3964 146.27 94.558 146.254 95.7429C146.231 96.8658 145.8 98.0042 145.753 99.1736C145.706 100.343 145.517 101.45 145.447 102.604C145.376 103.758 145.408 104.904 145.314 106.043C145.219 107.181 144.984 108.327 144.859 109.458C144.733 110.589 145.212 111.843 145.047 112.958C144.882 114.073 144.365 115.227 144.161 116.42C143.957 117.613 143.518 118.681 143.244 119.858C142.969 121.036 142.632 122.104 142.24 123.243C141.848 124.381 141.754 125.574 141.213 126.658C140.672 127.742 139.802 128.54 139.112 129.546C138.453 130.491 138.124 131.746 137.277 132.644C136.493 133.48 135.45 134.139 134.478 134.913C133.584 135.626 132.392 135.966 131.318 136.617C130.346 137.213 129.632 138.375 128.496 138.917C127.468 139.405 126.245 139.645 125.069 140.086C123.995 140.489 122.952 141.178 121.753 141.534C120.647 141.86 119.44 142.046 118.224 142.324C117.103 142.588 115.849 142.471 114.626 142.696C113.489 142.905 112.32 143.184 111.089 143.354C109.937 143.517 108.761 143.78 107.53 143.904C106.369 144.028 105.233 144.167 104.127 144.268C103.022 144.369 101.806 144.222 100.693 144.307C99.5247 144.392 98.3799 144.229 97.2666 144.291C96.0983 144.361 94.9771 144.679 93.8716 144.717C92.6955 144.764 91.5665 145.128 90.461 145.143C89.2849 145.159 88.148 144.547 87.0425 144.531C85.8664 144.524 84.7295 144.562 83.6319 144.516C82.4479 144.47 81.2954 144.71 80.2055 144.632C79.0216 144.547 77.8926 144.415 76.8027 144.291C75.6188 144.152 74.4349 144.361 73.3607 144.183C72.1846 143.989 71.1967 143.13 70.1383 142.89C68.97 142.626 67.7312 142.866 66.6963 142.557C65.5437 142.208 64.595 141.488 63.5914 141.093C62.478 140.652 61.4039 140.288 60.4473 139.792C59.381 139.242 58.4009 138.677 57.5071 138.081C56.5192 137.422 55.4137 136.981 54.5826 136.284C53.7515 135.587 53.2027 134.487 52.4186 133.643C51.6345 132.799 50.874 132.032 50.184 131.111C49.4941 130.189 48.6865 129.422 48.0828 128.439C47.4791 127.455 47.3928 126.278 46.8753 125.264C46.3579 124.249 45.6679 123.374 45.2288 122.321C44.7897 121.268 44.4291 120.238 44.0684 119.161C43.7077 118.085 43.3 117.055 43.0021 115.963C42.7042 114.871 42.8061 113.725 42.5865 112.618C42.367 111.51 41.6143 110.511 41.4653 109.388C41.3164 108.265 41.6222 107.119 41.5438 105.996C41.4653 104.873 41.4732 103.774 41.3713 102.736C41.2615 101.605 40.7675 100.56 40.6499 99.5376C40.5166 98.3992 40.3912 97.315 40.2657 96.3005C40.1246 95.1389 40.4382 94.0159 40.3441 93.0247C40.2344 91.8166 39.662 90.7556 39.6934 89.7954C39.7247 88.5253 40.1168 87.4798 40.5323 86.6357C41.0106 85.6754 41.8103 85.1024 43.0099 84.7074L42.9786 84.7229Z" fill="#283E60"/>
<mask id="mask1_277_5992" style="mask-type:luminance" maskUnits="userSpaceOnUse" x="43" y="83" width="99" height="59">
<path d="M141.087 86.5814C141.056 85.2959 139.833 83.7083 138.531 83.747C137.606 83.778 136.461 84.9706 135.058 85.0093C134.007 85.0403 132.8 84.1575 131.514 84.2039C130.416 84.2349 129.256 84.6686 128.017 84.7073C126.904 84.746 125.72 84.6066 124.505 84.6454C123.376 84.6841 122.215 85.172 121.008 85.2107C119.871 85.2494 118.679 84.7305 117.479 84.7693C116.28 84.808 115.151 84.5679 113.959 84.6066C112.767 84.6454 111.662 85.4817 110.478 85.5205C109.294 85.5592 108.149 85.5824 106.965 85.6211C105.781 85.6599 104.644 85.9077 103.461 85.9464C102.277 85.9851 101.101 85.1875 99.9166 85.2262C98.7327 85.2649 97.588 85.5592 96.4119 85.6056C95.2358 85.6521 94.0676 85.6211 92.8993 85.6599C91.7311 85.6986 90.555 85.7683 89.3867 85.807C88.2185 85.8457 87.0503 86.1942 85.882 86.2407C84.7138 86.2871 83.522 86.1632 82.3616 86.2019C81.2012 86.2407 80.0094 86.3801 78.849 86.4188C77.6886 86.4575 76.4734 85.9077 75.313 85.9541C74.1526 86.0006 72.9686 86.5195 71.8161 86.5659C70.6635 86.6124 69.4404 86.411 68.2878 86.4575C67.1353 86.504 65.92 86.5892 64.7752 86.6356C63.5678 86.6821 62.4074 86.9376 61.2705 86.9841C60.0552 87.0383 58.9105 87.6734 57.7893 87.7198C56.5505 87.774 55.3509 87.1235 54.2454 87.17C52.9752 87.2319 51.8383 87.9444 50.772 87.9986C49.4313 88.0683 48.1925 87.139 47.2046 87.201C45.1425 87.3326 43.9194 87.8592 43.739 87.9521C43.4097 88.1148 43.3549 89.3538 43.4333 91.2822C43.4725 92.2424 43.5352 93.3808 43.6763 94.6586C43.7861 95.6964 43.9272 96.8193 44.0997 98.0196C44.2565 99.0883 44.4761 100.196 44.6799 101.357C44.8759 102.434 45.1425 103.541 45.3777 104.672C45.6129 105.803 45.8717 106.856 46.1461 107.971C46.4205 109.086 46.3343 110.248 46.6322 111.347C46.9301 112.447 47.087 113.585 47.4241 114.662C47.7612 115.738 48.6943 116.644 49.0706 117.698C49.447 118.751 49.7684 119.866 50.1997 120.896C50.6309 121.926 50.9445 123.08 51.4385 124.063C51.9638 125.117 52.6381 126.046 53.2104 126.967C53.8455 127.99 54.6217 128.803 55.3117 129.616C56.0722 130.514 56.4329 131.691 57.1777 132.466C57.9932 133.31 59.3888 133.473 60.2042 134.177C61.0823 134.936 61.8272 135.711 62.7445 136.315C63.6619 136.919 64.5557 137.6 65.5671 138.08C66.5786 138.561 67.4959 139.211 68.6014 139.552C69.6364 139.877 70.7419 140.102 71.9023 140.319C72.9608 140.52 74.0193 141.132 75.2032 141.256C76.2695 141.372 77.4534 140.853 78.6373 140.907C79.7115 140.961 80.8327 140.876 82.0245 140.884C83.1065 140.899 84.2355 141.527 85.4194 141.511C86.5014 141.496 87.6305 141.093 88.8065 141.062C89.8964 141.031 91.0176 140.729 92.1858 140.675C93.3541 140.621 94.491 140.442 95.62 140.404C96.749 140.365 97.9408 140.76 99.0698 140.729C100.199 140.698 101.383 140.744 102.512 140.706C103.641 140.667 104.801 140.226 105.93 140.171C107.059 140.117 108.259 140.404 109.388 140.311C110.517 140.218 111.717 140.295 112.838 140.164C113.959 140.032 115.096 139.56 116.201 139.366C117.307 139.172 118.381 138.599 119.471 138.328C120.561 138.057 121.964 138.576 123.023 138.197C124.081 137.817 124.897 136.717 125.908 136.206C126.919 135.695 128.19 135.556 129.123 134.898C130.056 134.239 131.012 133.55 131.836 132.737C132.659 131.924 133.396 131.056 134.094 130.112C134.744 129.229 135.583 128.346 136.156 127.316C136.681 126.363 136.524 125.016 136.979 123.916C137.387 122.925 138.249 121.988 138.578 120.811C138.876 119.758 138.453 118.472 138.688 117.303C138.908 116.211 138.963 115.072 139.143 113.911C139.323 112.749 139.668 111.696 139.802 110.542C139.935 109.388 140.06 108.273 140.162 107.127C140.264 105.981 140.633 104.858 140.703 103.719C140.774 102.581 141.134 101.419 141.181 100.296C141.228 99.1735 141.032 97.9577 141.056 96.8502C141.087 95.6499 140.97 94.496 140.978 93.4118C140.985 92.1727 141.134 91.0189 141.127 89.9734C141.119 88.6259 141.111 87.4565 141.087 86.5349V86.5814Z" fill="white"/>
</mask>
<g mask="url(#mask1_277_5992)">
<path d="M142.013 85.8612C141.981 84.5369 140.766 83.5844 139.425 83.6231C138.5 83.6541 137.316 83.3056 135.928 83.3443C134.886 83.3753 133.717 83.4992 132.447 83.5379C131.357 83.5689 130.197 83.5844 128.958 83.6231C127.853 83.6541 126.692 83.7857 125.477 83.8245C124.356 83.8632 123.203 84.2581 122.003 84.2969C120.874 84.3356 119.698 84.0181 118.507 84.0568C117.315 84.0955 116.209 84.142 115.025 84.1807C113.841 84.2194 112.728 84.5369 111.552 84.5756C110.376 84.6144 109.239 84.5756 108.063 84.6221C106.887 84.6686 105.75 84.6763 104.582 84.715C103.414 84.7538 102.253 84.3975 101.085 84.4362C99.9166 84.475 98.7641 84.5447 97.5958 84.5834C96.4276 84.6221 95.2829 84.9474 94.1225 84.9861C92.9621 85.0248 91.786 84.8157 90.6256 84.8544C89.4652 84.8932 88.2969 84.8544 87.1287 84.8932C85.9604 84.9319 84.8079 85.3733 83.6553 85.4198C82.5028 85.4662 81.3188 85.5359 80.1663 85.5746C79.0137 85.6134 77.8219 85.4353 76.6694 85.4817C75.5168 85.5282 74.3407 85.8999 73.196 85.9386C72.0513 85.9773 70.836 85.6598 69.6913 85.7063C68.5466 85.7528 67.3626 86.2871 66.2179 86.3258C65.0732 86.3646 63.8658 86.4265 62.7289 86.473C61.5293 86.5194 60.3454 86.0935 59.2242 86.14C58.0167 86.1942 56.8641 86.473 55.7508 86.5194C54.5277 86.5737 53.3673 86.8602 52.2774 86.9144C51.0229 86.9764 49.8233 86.4033 48.757 86.4652C47.4241 86.5349 46.2716 86.9609 45.2915 87.0228C43.2451 87.1545 42.1396 87.4642 41.9514 87.5572C41.6143 87.7275 41.4575 88.7265 41.5437 90.7091C41.5829 91.7003 41.8887 92.8387 42.0298 94.1552C42.1474 95.2239 42.1474 96.3933 42.3278 97.6169C42.4924 98.7166 42.5316 99.886 42.7511 101.079C42.955 102.186 43.3784 103.293 43.6214 104.463C43.8645 105.632 43.9194 106.763 44.1938 107.909C44.4682 109.055 44.4761 110.232 44.7819 111.363C45.0876 112.494 45.3072 113.647 45.6522 114.763C45.9971 115.878 46.593 116.931 46.9772 118.015C47.3614 119.099 48.067 120.122 48.5061 121.175C48.9452 122.228 48.9922 123.552 49.494 124.567C50.035 125.651 51.0465 126.449 51.6345 127.393C52.2853 128.447 53.038 129.306 53.7514 130.143C54.5355 131.064 55.3117 131.893 56.0801 132.69C56.919 133.566 57.2954 134.836 58.1343 135.556C59.0438 136.338 60.0866 136.927 61.0275 137.554C61.9683 138.181 62.9876 138.863 64.0383 139.358C65.0889 139.854 66.1944 140.249 67.3313 140.605C68.3976 140.938 69.6442 140.737 70.836 140.961C71.9259 141.17 72.9922 141.883 74.1996 142.014C75.2973 142.131 76.5047 141.596 77.7279 141.658C78.8334 141.712 79.9781 142.286 81.1934 142.301C82.3067 142.317 83.475 142.464 84.6903 142.448C85.8036 142.433 86.9719 142.378 88.1872 142.34C89.3084 142.309 90.4688 142.123 91.6762 142.069C92.8837 142.014 94.0519 142.169 95.2201 142.131C96.3884 142.092 97.5723 141.426 98.7405 141.387C99.9088 141.348 101.116 141.325 102.277 141.279C103.437 141.232 104.684 141.79 105.844 141.728C107.004 141.666 108.22 141.434 109.372 141.341C110.525 141.248 111.685 140.543 112.838 140.411C113.99 140.28 115.276 140.636 116.413 140.442C117.55 140.249 118.765 140.001 119.887 139.722C121.008 139.443 122.098 138.816 123.187 138.429C124.277 138.042 125.32 137.461 126.355 136.934C127.39 136.408 128.731 136.299 129.687 135.626C130.644 134.952 131.318 133.914 132.165 133.085C133.012 132.257 133.694 131.374 134.415 130.406C135.089 129.5 135.701 128.532 136.289 127.463C136.83 126.48 137.661 125.581 138.124 124.451C138.539 123.428 138.869 122.267 139.206 121.059C139.511 119.974 139.629 118.774 139.88 117.574C140.107 116.451 140.068 115.25 140.248 114.05C140.429 112.85 140.789 111.766 140.931 110.573C141.072 109.38 141.001 108.219 141.103 107.034C141.205 105.849 141.487 104.687 141.558 103.518C141.628 102.349 141.597 101.133 141.644 99.9789C141.691 98.825 142.232 97.5937 142.256 96.4553C142.287 95.2239 142.107 94.0236 142.114 92.9084C142.13 91.6306 141.801 90.4458 141.801 89.3693C141.793 87.9831 142.013 86.7827 141.989 85.8302L142.013 85.8612Z" fill="#FFF200"/>
<path d="M141.793 99.5761C142.028 93.8222 141.981 88.711 141.919 85.8611C141.887 84.5369 140.774 83.4914 139.433 83.5379C124.324 84.0025 43.4882 86.5116 41.8573 87.317C41.1517 87.6655 41.3634 92.6296 42.4454 99.2044C57.6874 103.084 75.7364 98.2054 91.4567 99.9324C103.029 101.202 128.127 101.535 141.801 99.5761H141.793Z" fill="#FFF200"/>
</g>
<path d="M141.103 81.3001C141.283 80.3475 141.942 79.302 142.162 78.0862C142.35 77.033 142.263 75.8636 142.475 74.7407C142.687 73.6178 142.773 72.4949 142.977 71.4184C143.204 70.2491 143.675 69.1726 143.886 68.1814C144.177 66.8029 144.498 65.6645 144.733 64.9365C145.306 63.0934 145.164 61.8388 146.631 61.4904C147.407 61.3045 148.708 61.3742 150.676 61.4439C151.727 61.4826 152.84 61.5368 153.993 61.4904C155.145 61.4439 156.235 61.7537 157.341 61.7072C158.446 61.6607 159.599 61.7072 160.665 61.7072C161.865 61.7072 162.978 61.5833 163.974 61.7304C165.252 61.924 166.475 62.0015 167.212 62.6133C168.388 63.5968 168.976 65.1921 168.623 66.4776C168.318 67.5696 167.165 68.5531 165.605 69.2655C164.57 69.7379 163.229 69.9935 161.598 70.0942C160.469 70.1639 159.379 70.4272 158.321 70.4582C157.161 70.4891 156.055 70.0942 155.028 70.0942C153.797 70.0942 152.684 70.5821 151.743 70.5511C149.72 70.4969 149.916 69.2965 148.701 70.3807C147.485 71.4649 148.614 71.5811 148.293 73.4707C148.12 74.4619 147.336 75.4919 147.109 76.638C146.882 77.7842 147.117 78.9768 146.874 79.9913C146.544 81.3465 146.019 82.4694 145.682 83.1277C144.992 84.4907 143.777 84.5759 142.797 84.1577C141.918 83.7782 140.789 82.9496 141.095 81.3078L141.103 81.3001Z" fill="#283E60"/>
<path d="M129.256 137.399C128.049 137.523 126.904 137.383 125.947 137.763C124.842 138.197 124.152 139.087 123.376 139.8C122.545 140.559 121.502 141.139 121.031 142.146C120.561 143.153 120.098 144.229 119.981 145.375C119.871 146.429 120.584 147.528 120.741 148.674C120.922 149.952 121.118 150.998 121.682 151.904C122.309 152.911 122.976 153.871 124.042 154.413C125.006 154.909 126.214 154.754 127.5 154.87C128.566 154.963 129.679 155.079 130.95 154.916C132.032 154.777 133.278 154.986 134.501 154.653C135.615 154.351 136.775 153.793 137.559 153.019C138.343 152.245 138.571 151.005 138.994 149.952C139.417 148.899 139.59 147.877 139.653 146.754C139.715 145.631 139.613 144.578 139.339 143.509C139.065 142.44 138.516 141.534 137.881 140.628C137.246 139.722 136.571 138.979 135.583 138.382C134.697 137.848 133.772 137.143 132.58 136.95C131.577 136.787 130.479 137.267 129.256 137.399Z" fill="#283E60"/>
<path d="M73.0314 140.458C71.824 140.582 70.8439 140.923 69.8874 141.302C68.7818 141.736 67.7155 142.007 66.9393 142.719C66.1082 143.478 65.2065 144.253 64.7361 145.267C64.2657 146.282 64.1324 147.412 64.0148 148.551C63.905 149.604 64.4225 150.673 64.5793 151.819C64.7596 153.096 64.9556 154.119 65.5202 155.025C66.1474 156.032 66.6806 157.17 67.7547 157.72C68.7191 158.215 69.9422 158.649 71.2281 158.765C72.2944 158.858 73.5175 158.548 74.7877 158.386C75.8697 158.246 77.1007 158.239 78.3238 157.906C79.4372 157.604 80.4329 156.814 81.217 156.039C82.001 155.265 82.1029 154.057 82.5263 153.004C82.9497 151.95 83.7965 151.052 83.8671 149.937C83.9376 148.822 83.7181 147.66 83.4437 146.599C83.1693 145.538 82.4558 144.601 81.8207 143.695C81.1856 142.789 80.6368 141.72 79.641 141.124C78.755 140.59 77.4927 140.791 76.2931 140.597C75.2895 140.435 74.2624 140.334 73.0393 140.458H73.0314Z" fill="#283E60"/>
<path d="M76.8654 105.593C75.4462 106.081 74.1604 106.585 73.6664 107.754C73.2901 108.637 73.2195 109.992 73.4312 111.649C73.5645 112.687 74.0663 113.887 74.4348 115.343C74.7641 116.621 74.6936 117.93 74.9052 119.123C75.1483 120.47 75.8226 121.655 76.0578 122.786C76.3636 124.257 76.7243 125.426 77.328 126.286C78.0415 127.3 78.9275 127.804 80.5661 127.548C82.2048 127.293 82.6988 126.58 82.9889 125.481C83.2398 124.528 83.1222 123.413 82.9026 122.034C82.7301 120.95 82.3616 119.781 82.1421 118.542C81.9461 117.396 81.852 116.149 81.8049 114.948C81.7501 113.5 81.6168 112.199 81.358 110.999C81.0287 109.473 80.6445 108.234 80.0408 107.297C79.1391 105.88 78.1512 105.136 76.8575 105.586L76.8654 105.593Z" fill="#283E60"/>
<path d="M96.5609 104.927C94.9849 104.749 94.1146 105.113 93.5109 105.524C92.7739 106.027 92.523 106.802 92.6406 108.304C92.6955 108.978 92.7895 110.256 92.7268 111.82C92.6876 112.889 92.4132 114.081 92.3975 115.32C92.3818 116.49 92.8052 117.667 92.868 118.813C92.9307 120.075 92.3034 121.376 92.5308 122.398C92.8523 123.87 93.5971 125.217 94.4282 125.605C95.8552 126.286 97.094 125.837 97.6821 124.915C98.1211 124.226 98.2309 123.041 98.4269 121.694C98.568 120.733 98.7876 119.649 98.8895 118.457C98.9836 117.349 98.5837 116.071 98.67 114.794C98.7562 113.516 99.5246 112.354 99.5089 111.177C99.4932 109.837 99.1404 108.567 98.8817 107.545C98.5131 106.089 97.7448 105.044 96.5687 104.92L96.5609 104.927Z" fill="#283E60"/>
<path d="M114.618 106.902C113.057 106.492 111.63 106.167 110.689 106.902C109.749 107.638 109.341 109.164 109.231 110.643C109.184 111.324 109.168 112.494 109.137 113.888C109.114 114.887 109.411 115.986 109.459 117.117C109.506 118.248 109.466 119.301 109.631 120.331C109.819 121.516 109.811 122.669 110.211 123.514C110.76 124.691 111.599 125.155 112.72 125.055C114.218 124.923 115.457 124.513 116.045 123.428C116.601 122.406 116.727 120.973 116.86 119.68C116.993 118.387 116.774 116.954 116.844 115.909C116.915 114.863 117.033 113.655 117.127 112.416C117.221 111.177 117.252 109.992 116.962 108.97C116.64 107.824 115.943 107.251 114.618 106.902Z" fill="#283E60"/>
<path d="M144.765 105.423C146.035 105.377 147.266 105.338 148.457 105.4C149.743 105.47 150.912 105.857 152.072 106.089C153.342 106.345 154.44 106.685 155.514 107.181C156.659 107.715 157.568 108.327 158.431 109.187C159.293 110.046 160.297 110.728 160.806 111.928C161.23 112.927 161.465 114.027 161.669 115.134C161.873 116.242 162.1 117.318 162.186 118.41C162.273 119.502 161.975 120.702 162.077 121.748C162.194 122.948 162.688 124.009 162.994 124.946C163.37 126.116 163.966 126.898 164.962 127.378C166.036 127.897 167.079 128.516 168.208 128.71C169.337 128.903 170.756 128.57 171.752 129.144C172.622 129.647 173.187 130.723 173.728 132.055C174.08 132.923 174.371 134.015 174.519 135.409C174.653 136.671 174.159 137.616 173.822 138.545C173.422 139.621 173.132 140.667 172.261 141.356C171.391 142.045 170.333 142.363 169.227 142.719C168.192 143.06 167.087 143.122 165.958 143.254C164.829 143.385 163.723 143.532 162.649 143.494C161.426 143.455 160.344 143.114 159.387 142.936C158.031 142.68 156.627 142.975 155.538 142.518C154.33 142.007 153.264 141.194 152.409 140.233C151.649 139.381 151.217 138.181 150.755 136.818C150.402 135.773 150.292 134.549 150.12 133.124C149.971 131.885 149.916 130.708 149.814 129.585C149.696 128.315 149.547 127.115 149.343 126.038C149.1 124.76 148.246 123.862 147.626 122.94C147.007 122.019 146.427 121.004 145.149 120.517C144.208 120.16 143.016 119.967 141.589 119.897C140.335 119.835 139.292 119.463 138.382 118.882C137.402 118.255 136.501 117.489 135.983 116.482C135.466 115.475 135.23 114.298 135.23 113.152C135.23 112.006 135.599 110.929 136.124 109.891C136.61 108.931 137.12 107.793 138.1 107.057C138.931 106.43 140.052 105.872 141.268 105.524C142.263 105.237 143.479 105.493 144.749 105.454L144.765 105.423Z" fill="#283E60"/>
<path d="M145.055 109.241C146.294 109.28 147.423 109.62 148.544 109.799C149.783 110 150.849 110.286 151.884 110.712C153.029 111.185 154.087 111.556 154.91 112.362C155.734 113.167 156.196 114.128 156.627 115.312C157.059 116.497 157.905 117.535 158.101 118.828C158.29 120.052 157.89 121.399 158.062 122.646C158.235 123.893 158.995 125.047 159.348 126.201C159.732 127.448 159.991 128.632 160.806 129.57C161.355 130.197 162.351 130.081 163.449 130.236C164.413 130.367 165.268 131.196 166.114 131.49C167.541 131.978 168.294 132.861 168.38 134.572C168.451 135.858 168.004 136.671 167.157 137.205C166.365 137.701 165.315 138.127 164.154 138.166C163.119 138.197 161.951 138.228 160.94 138.026C159.732 137.794 158.854 136.834 158.133 136.493C157.153 136.02 156.259 135.44 155.498 134.433C154.848 133.573 154.361 132.567 153.907 131.405C153.507 130.383 152.848 129.36 152.621 128.168C152.417 127.068 152.441 125.883 152.394 124.691C152.346 123.351 151.907 122.298 151.547 121.345C151.092 120.145 150.778 118.929 149.861 118.271C148.944 117.612 147.736 117.341 146.45 117.125C145.4 116.946 144.184 116.683 142.891 116.73C141.393 116.784 140.499 116.544 139.951 115.762C139.339 114.887 139.504 113.833 139.935 112.679C140.303 111.688 140.923 110.937 141.958 110.294C142.836 109.752 143.745 109.233 145.039 109.28L145.055 109.241Z" fill="#5C6D87"/>
<path d="M79.7664 56.1313C77.1634 54.536 77.1085 55.837 77.4064 56.6579C77.6573 57.3472 79.4371 58.6714 80.6681 58.6172C81.7971 58.5707 80.5897 56.6269 79.7664 56.1236V56.1313Z" fill="#283E60"/>
<path d="M98.968 59.5386C100.317 59.5231 102.386 58.4312 101.798 57.6568C101.304 57.0063 98.2937 56.9288 97.6429 58.0362C97.047 59.0507 98.2702 59.5541 98.968 59.5464V59.5386Z" fill="#283E60"/>
<path d="M94.8359 80.781C94.781 79.6891 94.0048 78.512 93.2835 77.3581C92.6641 76.3668 91.8095 75.453 90.8137 74.6321C89.8807 73.8577 88.9633 72.8432 87.7873 72.3863C86.6112 71.9294 85.294 72.123 84.0159 72.123C82.7379 72.123 81.7108 72.3708 80.7308 72.487C79.4684 72.6341 78.4884 72.9129 77.571 73.2304C76.4106 73.6331 75.211 73.6564 74.4191 74.2991C73.5723 74.9884 73.0156 75.9796 72.3492 76.9012C70.4596 76.514 71.4554 75.3291 69.6913 74.09C68.7347 73.4163 67.3704 73.0446 66.0846 72.6109C64.9085 72.2159 63.6305 71.9914 62.2819 72.1308C61.2313 72.2392 60.2042 72.5877 59.1771 72.9439C58.15 73.3001 57.0366 73.4937 56.1271 74.0436C55.2176 74.5934 54.1983 75.2052 53.4535 75.9332C52.6537 76.7153 52.0186 77.7066 51.5639 78.6127C51.0699 79.5884 50.819 80.7423 50.8504 81.8033C50.8818 82.9339 51.3836 83.9484 51.7129 84.901C52.0735 85.9464 52.74 86.7054 53.4299 87.4953C54.1199 88.2852 54.8334 88.928 55.837 89.4236C56.7387 89.8728 57.6717 90.3219 58.8164 90.4923C59.8827 90.6549 61.0039 90.4536 62.1878 90.2909C63.309 90.1361 64.5714 90.3916 65.6534 90.0509C66.8138 89.6869 67.739 88.8041 68.6641 88.3471C70.0754 87.6502 71.4554 87.232 71.7533 86.6899C72.31 85.6831 71.9023 86.9764 74.2074 88.1226C75.015 88.5253 76.1519 88.6569 77.6965 88.866C78.7 89.0054 79.8605 89.5707 81.2718 89.5475C82.5262 89.532 83.7102 89.4236 84.7686 89.2455C86.0153 89.0364 87.0189 88.3162 88.0068 87.9367C89.1986 87.4798 90.2649 87.0771 91.1117 86.4576C92.1623 85.6909 92.9699 84.8545 93.5265 84.0104C94.2871 82.8488 94.9143 81.6639 94.8673 80.7656L94.8359 80.781Z" fill="#283E60"/>
<path d="M90.0454 81.0288C86.8621 77.9157 85.0274 75.8557 81.9618 75.8557C78.8961 75.8557 76.5204 76.6146 76.097 79.6426C75.6737 82.6706 75.2032 84.6841 79.2803 85.443C83.3574 86.202 83.5299 85.0636 85.4665 84.1807C87.4031 83.2979 87.3796 83.4063 88.8144 83.1275C89.6847 82.9572 90.7118 81.6794 90.0454 81.0288Z" fill="white"/>
<path d="M68.9464 79.8596C68.9464 79.8596 65.9905 77.4821 62.9327 77.1569C59.8749 76.8316 54.8334 78.1326 55.7115 81.9118C56.5897 85.691 56.7935 85.9311 61.6155 85.691C68.178 85.3657 68.9464 79.8596 68.9464 79.8596Z" fill="white"/>
<path d="M89.5279 53.2581C88.3362 52.7547 84.4002 56.8746 84.0317 58.8726C83.6632 60.8706 86.5956 63.2171 87.6932 63.7592C88.7909 64.3013 93.1895 61.9471 93.558 60.1427C93.9265 58.3383 90.8059 53.8079 89.5279 53.2658V53.2581Z" fill="#67778F"/>
<path opacity="0.68" d="M88.344 55.3337C87.9598 55.7131 84.2982 58.0364 84.949 60.956C85.5998 63.8755 85.9369 67.0042 89.4338 65.4941C92.9307 63.984 95.3769 63.225 93.2286 59.8176C91.0803 56.4101 89.1045 54.5747 88.344 55.3337Z" fill="#5C658A"/>
<path d="M92.9386 29.5609C90.3042 29.7158 89.8651 33.6653 92.8837 33.6653C95.134 33.6653 95.9494 29.3905 92.9386 29.5609Z" fill="#FFF200"/>
</g>
<defs>
<clipPath id="clip0_277_5992">
<rect width="134.873" height="137.452" fill="white" transform="translate(39.662 21.3289)"/>
</clipPath>
</defs>
</svg>
