<svg width="148" height="152" viewBox="0 0 148 152" fill="none" xmlns="http://www.w3.org/2000/svg">
<g clip-path="url(#clip0_175_3163)">
<path d="M66.0515 28.1515C64.724 27.1092 64.8883 27.2378 63.8003 25.7352C63.1639 24.8553 62.4454 23.928 61.7201 23.1158C60.7485 22.0329 59.9615 20.8078 59.2499 20.7266C58.4698 20.6386 57.4503 21.593 56.3623 22.4728C55.5343 23.1429 54.6653 23.9213 53.9126 24.6929C52.8931 25.7352 51.7777 26.4053 51.3535 26.7775C50.2107 27.786 50.6487 29.1261 49.0954 30.737C48.0279 31.847 47.8432 30.9197 46.0709 31.4883C45.2156 31.759 44.2303 32.0636 43.2107 32.5915C42.3622 33.0315 41.3837 33.4308 40.5147 34.1009C39.7483 34.6965 38.8109 35.265 38.0924 36.0772C37.4492 36.8014 36.7991 37.6678 36.2449 38.5951C35.7454 39.4276 35.4648 40.4631 35.0679 41.4716C34.6711 42.4801 34.1715 43.3871 33.8089 44.3346C33.4257 45.3363 33.5899 46.4937 33.2751 47.4548C32.9399 48.4769 32.194 49.3432 31.9819 50.3314C31.7561 51.3737 32.0777 52.4499 32.0366 53.4651C31.9956 54.4804 31.8177 55.5092 32.0298 56.538C32.2419 57.5668 32.7825 58.3722 33.2546 59.3604C33.6789 60.2403 33.6447 61.4653 34.3221 62.3587C34.9105 63.1303 35.8069 63.7733 36.6075 64.5652C37.3055 65.2488 38.1198 65.9121 38.9888 66.6093C39.7552 67.2252 40.7063 67.699 41.6232 68.3352C42.4648 68.9173 43.3749 69.3437 44.2166 69.8445C45.0582 70.3454 45.7014 71.3471 46.5841 71.7871C47.4668 72.227 48.4864 72.5383 49.4102 72.9106C50.3339 73.2829 51.2987 73.6822 52.243 73.9935C53.1873 74.3049 54.2684 74.2778 55.2401 74.5215C56.2118 74.7651 57.1766 75.0968 58.1619 75.2795C59.1473 75.4623 60.1737 75.3946 61.1795 75.5164C62.1854 75.6383 63.1365 76.173 64.1424 76.2474C65.1483 76.3219 66.161 76.2271 67.1737 76.2677C68.1864 76.3083 69.1786 76.5046 70.1982 76.5114C71.2177 76.5181 72.2099 76.3219 73.2226 76.3083C74.2354 76.2948 75.2344 76.464 76.2539 76.4369C77.2735 76.4099 78.2588 76.4098 79.2784 76.3828C80.298 76.3557 81.2833 76.1526 82.296 76.1256C83.3087 76.0985 84.3009 76.024 85.3205 76.0037C86.4358 75.9767 87.517 76.1391 88.5297 76.0579C89.645 75.9699 90.7193 75.8413 91.7184 75.6856C92.8269 75.5097 93.9012 75.2931 94.8728 75.0426C95.9608 74.7584 96.8572 74.0409 97.781 73.6619C98.8142 73.2355 99.7722 72.8023 100.621 72.2608C101.544 71.6652 102.297 70.941 103.022 70.2168C103.748 69.4926 104.692 68.8293 105.26 67.9426C105.828 67.056 106.033 65.9866 106.423 64.9849C106.813 63.9831 107.032 63.022 107.279 61.9662C107.518 60.978 108.093 60.0101 108.243 58.934C108.394 57.8578 107.922 56.7546 107.881 55.7055C107.84 54.6564 108.018 53.5396 107.819 52.4973C107.621 51.4549 107.306 50.3991 106.964 49.3974C106.622 48.3956 106.492 47.2315 106.026 46.2839C105.561 45.3363 104.672 44.5309 104.11 43.6442C103.515 42.7034 103.009 41.7356 102.366 40.9301C101.654 40.03 101.011 39.123 100.306 38.4191C99.4369 37.5527 98.5063 36.903 97.7604 36.3818C96.912 35.7862 96.2072 35.0958 95.475 34.622C94.5512 34.0332 93.429 34.0129 92.7242 33.6136C91.1367 32.7134 90.7125 33.4511 90.1719 32.1381C89.5287 30.5949 90.5072 30.5746 90.4525 28.7539C90.4183 27.6777 90.4525 26.4526 90.213 25.4035C89.9187 24.1175 89.344 22.8722 88.5092 22.439C87.7633 22.0532 86.6479 22.1615 85.6489 22.5202C84.8552 22.8113 84.2393 23.6844 83.4319 24.2123C82.6245 24.7402 81.6733 24.9974 81.0027 25.5457C80.1064 26.2767 79.381 26.9806 78.9431 27.3799C78.2931 27.9687 77.5267 28.5914 76.7945 29.1261C75.8023 29.8503 74.9128 30.5475 74.3996 30.5475C74.0848 30.5475 72.8942 30.2564 71.5188 29.9316C70.6019 29.715 69.6166 29.363 68.7065 29.1329C67.1464 28.7336 67.2216 29.072 66.0789 28.1718L66.0515 28.1515Z" fill="#283E60"/>
<path d="M49.4238 33.9858C48.2264 34.9672 48.5069 34.7303 46.8784 35.6508C46.0983 36.0907 45.2293 36.6593 44.3124 37.3429C43.5391 37.9182 42.6428 38.4664 41.8695 39.2245C41.1647 39.9148 40.2478 40.5308 39.6183 41.3836C39.023 42.1822 38.7356 43.2381 38.2703 44.1857C37.8324 45.0723 37.3944 46.0064 37.1139 47.0352C36.8539 47.9827 36.4775 48.9844 36.3886 50.0538C36.2996 51.1232 36.5528 52.1791 36.5938 53.2011C36.6349 54.2231 36.7854 55.2858 36.977 56.301C37.1686 57.3163 37.6202 58.2639 37.9966 59.2317C38.3729 60.1996 38.5919 61.2284 39.1667 62.1218C39.7415 63.0152 40.2752 63.8816 41.0279 64.6667C41.7258 65.3977 42.7865 65.7564 43.6692 66.4129C44.4697 67.0153 45.2772 67.6313 46.2488 68.166C47.1247 68.6533 47.8295 69.6076 48.8491 70.034C49.7728 70.4198 50.8745 70.5416 51.9214 70.8801C52.8794 71.1914 53.9468 71.2794 55.0143 71.5501C55.9996 71.7938 56.9645 72.2946 58.0456 72.4977C59.0446 72.6872 60.0847 72.897 61.1659 73.0527C62.1786 73.2016 63.2118 73.4723 64.2998 73.5942C65.3878 73.716 66.4415 73.4317 67.4885 73.5265C68.5354 73.6212 69.596 73.7498 70.6361 73.8243C71.6762 73.8987 72.7642 73.7363 73.8043 73.7837C74.8443 73.8311 75.9186 73.8987 76.9587 73.9191C77.9988 73.9394 79.08 74.1086 80.1132 74.095C81.1464 74.0815 82.2481 74.2439 83.2814 74.1898C84.3625 74.1289 85.4163 74.0544 86.4358 73.9461C87.517 73.8311 88.5913 73.7972 89.5903 73.6212C90.6646 73.425 91.5815 72.7143 92.5463 72.4368C93.6069 72.139 94.7702 72.2676 95.6871 71.8615C96.693 71.4148 97.7057 70.9477 98.52 70.3657C99.3342 69.7836 99.9364 68.8428 100.566 68.0847C101.195 67.3267 101.627 66.4062 102.044 65.4789C102.441 64.599 103.063 63.7327 103.289 62.7107C103.495 61.7766 103.289 60.7275 103.358 59.6852C103.419 58.7309 103.755 57.7292 103.714 56.6868C103.672 55.6445 103.625 54.6563 103.474 53.7155C103.31 52.7138 102.619 51.8542 102.345 50.9337C102.058 49.9658 102.01 48.9371 101.613 48.0639C101.195 47.1434 100.422 46.4395 99.9159 45.6206C99.389 44.7542 98.8758 43.9352 98.2805 43.1772C97.6509 42.3785 96.9256 41.722 96.255 41.0452C95.5297 40.3142 95.1465 39.2651 94.4212 38.6627C93.6069 37.9926 92.7174 37.4782 91.9579 36.9571C91.0341 36.3276 90.0145 36.0636 89.2687 35.6508C87.6675 34.7641 87.2022 35.5899 86.6958 34.2024C86.0526 32.4493 86.7985 32.3478 86.7164 30.4933C86.6479 29.011 86.5453 27.4475 85.7858 26.9467C85.3205 26.6421 83.9588 27.3528 82.5492 28.3545C81.6254 29.0043 80.7906 29.9857 79.9148 30.7099C78.4231 31.9417 78.8336 32.3749 77.1093 32.781C75.7202 33.1126 75.6928 33.0111 74.2627 32.9502C72.8326 32.8893 72.8394 32.6592 71.4093 32.5983C69.9792 32.5373 69.9655 32.8825 68.5286 32.8216C67.0916 32.7607 67.1121 32.3546 65.6752 32.3004C64.2382 32.2463 64.0535 33.045 62.7191 32.5103C61.2685 31.9282 62.2265 31.028 61.3848 29.5525C60.8853 28.6794 60.4884 27.5897 59.8794 26.7978C59.0515 25.7081 57.943 24.8011 57.2382 24.8688C56.6565 24.9229 56.0612 26.1142 55.1375 27.1362C54.5216 27.8198 53.4952 28.3207 52.8725 29.1532C52.2499 29.9857 51.9967 31.0889 51.4835 31.8402C50.5118 33.2616 50.6008 33.0247 49.4375 33.979L49.4238 33.9858Z" fill="white"/>
<path opacity="0.51" d="M67.4952 67.9562C72.203 68.3352 73.9889 68.8361 75.2616 70.095C76.5344 71.3539 80.7016 74.7042 73.7836 73.7837C66.8657 72.8632 67.1189 71.6043 67.4952 70.7244C67.8716 69.8446 67.4952 67.9562 67.4952 67.9562Z" fill="#5C658A"/>
<mask id="mask0_175_3163" style="mask-type:luminance" maskUnits="userSpaceOnUse" x="36" y="24" width="68" height="51">
<path d="M49.4238 33.9858C48.2264 34.9672 48.5069 34.7303 46.8784 35.6508C46.0983 36.0907 45.2293 36.6593 44.3124 37.3429C43.5391 37.9182 42.6428 38.4664 41.8695 39.2245C41.1647 39.9148 40.2478 40.5308 39.6183 41.3836C39.023 42.1822 38.7356 43.2381 38.2703 44.1857C37.8324 45.0723 37.3944 46.0064 37.1139 47.0352C36.8539 47.9827 36.4775 48.9844 36.3886 50.0538C36.2996 51.1232 36.5528 52.1791 36.5938 53.2011C36.6349 54.2231 36.7854 55.2858 36.977 56.301C37.1686 57.3163 37.6202 58.2639 37.9966 59.2317C38.3729 60.1996 38.5919 61.2284 39.1667 62.1218C39.7415 63.0152 40.2752 63.8816 41.0279 64.6667C41.7258 65.3977 42.7865 65.7564 43.6692 66.4129C44.4697 67.0153 45.2772 67.6313 46.2488 68.166C47.1247 68.6533 47.8295 69.6076 48.8491 70.034C49.7728 70.4198 50.8745 70.5416 51.9214 70.8801C52.8794 71.1914 53.9468 71.2794 55.0143 71.5501C55.9996 71.7938 56.9645 72.2946 58.0456 72.4977C59.0446 72.6872 60.0847 72.897 61.1659 73.0527C62.1786 73.2016 63.2118 73.4723 64.2998 73.5942C65.3878 73.716 66.4415 73.4317 67.4885 73.5265C68.5354 73.6212 69.596 73.7498 70.6361 73.8243C71.6762 73.8987 72.7642 73.7363 73.8043 73.7837C74.8443 73.8311 75.9186 73.8987 76.9587 73.9191C77.9988 73.9394 79.08 74.1086 80.1132 74.095C81.1464 74.0815 82.2481 74.2439 83.2814 74.1898C84.3625 74.1289 85.4163 74.0544 86.4358 73.9461C87.517 73.8311 88.5913 73.7972 89.5903 73.6212C90.6646 73.425 91.5815 72.7143 92.5463 72.4368C93.6069 72.139 94.7702 72.2676 95.6871 71.8615C96.693 71.4148 97.7057 70.9477 98.52 70.3657C99.3342 69.7836 99.9364 68.8428 100.566 68.0847C101.195 67.3267 101.627 66.4062 102.044 65.4789C102.441 64.599 103.063 63.7327 103.289 62.7107C103.495 61.7766 103.289 60.7275 103.358 59.6852C103.419 58.7309 103.755 57.7292 103.714 56.6868C103.672 55.6445 103.625 54.6563 103.474 53.7155C103.31 52.7138 102.619 51.8542 102.345 50.9337C102.058 49.9658 102.01 48.9371 101.613 48.0639C101.195 47.1434 100.422 46.4395 99.9159 45.6206C99.389 44.7542 98.8758 43.9352 98.2805 43.1772C97.6509 42.3785 96.9256 41.722 96.255 41.0452C95.5297 40.3142 95.1465 39.2651 94.4212 38.6627C93.6069 37.9926 92.7174 37.4782 91.9579 36.9571C91.0341 36.3276 90.0145 36.0636 89.2687 35.6508C87.6675 34.7641 87.2022 35.5899 86.6958 34.2024C86.0526 32.4493 86.7985 32.3478 86.7164 30.4933C86.6479 29.011 86.5453 27.4475 85.7858 26.9467C85.3205 26.6421 83.9588 27.3528 82.5492 28.3545C81.6254 29.0043 80.7906 29.9857 79.9148 30.7099C78.4231 31.9417 78.8336 32.3749 77.1093 32.781C75.7202 33.1126 75.6928 33.0111 74.2627 32.9502C72.8326 32.8893 72.8394 32.6592 71.4093 32.5983C69.9792 32.5373 69.9655 32.8825 68.5286 32.8216C67.0916 32.7607 67.1121 32.3546 65.6752 32.3004C64.2382 32.2463 64.0535 33.045 62.7191 32.5103C61.2685 31.9282 62.2265 31.028 61.3848 29.5525C60.8853 28.6794 60.4884 27.5897 59.8794 26.7978C59.0515 25.7081 57.943 24.8011 57.2382 24.8688C56.6565 24.9229 56.0612 26.1142 55.1375 27.1362C54.5216 27.8198 53.4952 28.3207 52.8725 29.1532C52.2499 29.9857 51.9967 31.0889 51.4835 31.8402C50.5118 33.2616 50.6008 33.0247 49.4375 33.979L49.4238 33.9858Z" fill="white"/>
</mask>
<g mask="url(#mask0_175_3163)">
<path d="M99.69 42.7304C99.4847 41.5866 98.7457 40.6999 98.2873 39.8133C97.7741 38.8116 97.4593 37.7016 96.7135 36.9773C95.9266 36.2058 94.8591 35.7658 93.9285 35.2582C92.95 34.7235 91.8757 34.5137 90.8835 34.2091C89.7613 33.8639 88.7623 33.2277 87.8112 33.0855C85.9294 32.808 86.1621 33.3766 84.6293 32.8622C84.0545 32.1786 82.6449 32.5441 80.9069 32.6727C79.771 32.7539 78.4572 32.7539 77.0819 32.7945C76.1649 32.8216 74.7827 32.7674 73.2773 32.7471C72.032 32.7336 70.6977 32.7336 69.466 32.7674C69.2812 32.6862 68.5217 31.9011 67.42 30.8723C66.8042 30.3037 66.2089 29.5322 65.4699 28.8553C64.7856 28.2326 64.074 27.5829 63.376 26.9737C62.6165 26.3172 61.7201 25.8772 61.0495 25.3696C59.982 24.5642 59.1062 23.7181 58.6203 23.7181C57.5187 23.7181 56.5744 24.4965 55.5754 24.8958C54.5763 25.2952 53.6184 25.62 52.7151 26.2901C51.894 26.906 51.2919 27.8062 50.5049 28.5981C49.7659 29.3359 48.8148 29.9112 48.1032 30.7437C47.3915 31.5762 46.6867 32.3343 46.0093 33.1735C45.3319 34.0128 44.5518 34.7506 43.8744 35.5763C43.197 36.402 42.7248 37.4241 42.0132 38.2092C41.3084 38.9875 40.8157 39.705 40.3983 40.3141C39.6935 41.3429 39.1598 42.0536 39.2967 42.6763C39.5156 43.6712 41.0484 44.0909 42.5606 43.9894C43.8744 43.8946 45.154 43.3328 45.7903 42.48C46.5704 41.4242 47.1931 40.6323 48.1237 40.1991C48.8832 39.8471 49.9233 39.705 51.3466 39.5899C52.2293 39.5155 53.3036 39.8336 54.5969 39.8065C55.5411 39.7862 56.6086 39.5764 57.8334 39.5561C57.8334 39.5561 59.1472 38.5747 60.8374 37.7219C61.8638 37.2007 63.1912 37.018 64.1561 36.5306C64.505 36.3547 64.7924 35.8538 65.4288 35.847C66.6126 35.8335 67.899 36.023 68.8501 36.6322C69.8013 37.2413 70.1366 38.507 70.684 39.529C71.1903 40.4766 72.0593 41.0451 72.7505 41.5054C73.5921 42.0671 74.5364 42.3176 75.2891 42.6898C76.1649 43.1298 76.8766 43.6239 77.075 44.673C77.294 45.7965 78.0056 46.2838 78.9704 46.5952C79.7368 46.8388 80.4621 47.0554 81.1738 47.9082C81.6322 48.4632 82.1865 49.0859 82.467 50.2298C82.6928 51.1435 83.4387 51.9625 84.5062 52.3889C85.3273 52.7138 86.4016 52.619 87.5032 52.6664C88.4475 52.7002 89.4192 52.5446 90.4456 52.3686C91.4172 52.1994 92.4368 52.1655 93.3742 51.8068C94.3117 51.4481 95.0233 50.7036 95.8308 50.1553C96.6382 49.6071 97.5551 49.1468 98.1367 48.3685C98.7184 47.5901 99.43 46.7779 99.649 45.783C99.8474 44.8895 99.8953 43.8201 99.7037 42.7507L99.69 42.7304Z" fill="#67778F"/>
<path opacity="0.51" d="M46.2214 30.5543C42.9232 33.6 47.2409 36.7135 53.2693 36.4766C59.3046 36.2397 68.0563 32.6051 65.4903 28.5441C62.9243 24.483 52.5508 24.7064 46.2214 30.5543Z" fill="#5C658A"/>
<path d="M55.9106 19.3458C51.7982 17.5116 48.7806 21.7351 51.326 27.1497C53.8715 32.5644 54.1247 36.4698 56.9302 32.5644C59.7357 28.6591 63.8071 22.8654 55.9106 19.3458Z" fill="#5C658A"/>
<path opacity="0.68" d="M85.5736 37.9858C81.4612 36.1516 78.4435 40.3751 80.989 45.7898C83.5345 51.2044 83.7877 55.1098 86.5932 51.2044C89.3987 47.2991 93.47 41.5054 85.5736 37.9858Z" fill="#5C658A"/>
<path opacity="0.51" d="M82.5971 47.2721C79.2989 50.3179 82.0839 54.7038 88.1191 54.4601C94.1544 54.2232 98.0341 51.5836 95.475 47.5225C92.9158 43.4615 88.9334 41.4243 82.6039 47.2721H82.5971Z" fill="#5C658A"/>
<path d="M86.34 25.5186C86.34 25.5186 88.4407 31.8808 87.9343 34.3987C87.428 36.9165 76.3634 35.8945 77.0887 32.7878C77.814 29.6811 80.1063 27.6641 82.7818 25.9044C85.4573 24.1446 86.3468 25.5253 86.3468 25.5253L86.34 25.5186Z" fill="#5C658A"/>
<path opacity="0.51" d="M77.9714 32.0162C79.4357 33.3563 81.817 36.8488 74.0848 37.0383C66.3525 37.2278 64.3476 39.6847 61.4806 35.908C58.6135 32.1312 59.4757 30.3376 63.3897 30.2429C67.3037 30.1481 77.9714 32.0229 77.9714 32.0229V32.0162Z" fill="#5C658A"/>
</g>
<path d="M72.7436 19.1766C71.6146 19.1157 70.6634 18.6961 69.8492 18.757C68.6791 18.8518 67.8169 19.3188 67.071 19.6369C66.1678 20.0295 65.6135 20.7266 64.8677 21.4102C63.7455 22.439 62.7533 22.1073 62.3222 22.906C62.069 23.3798 61.8706 24.2461 61.7269 25.7419C61.5353 27.7521 60.6047 27.8131 59.3799 27.61C58.155 27.407 56.8686 26.9602 56.3554 28.5982C55.9859 29.7759 55.8627 30.8994 56.3144 31.847C56.6975 32.666 57.5118 33.3563 58.8804 33.864C59.7288 34.1753 60.7963 34.4799 62.1375 34.6356C63.1091 34.7506 64.2245 34.9672 65.4835 34.9875C66.5989 35.0011 67.6732 35.0281 68.6859 35.0484C69.8218 35.0755 70.8961 34.8657 71.8951 34.886C73.0584 34.9131 74.1258 35.2515 75.0975 35.265C76.336 35.2853 77.4035 34.7168 78.3067 34.6965C79.99 34.6559 81.0301 34.7439 81.3927 34.4054C81.9675 33.8775 81.9059 32.6795 81.8717 31.0957C81.8512 30.0466 82.0359 28.8351 81.8033 27.5829C81.6596 26.7843 81.5227 25.8435 81.2011 24.9027C80.9206 24.0702 80.64 23.1361 80.0926 22.3578C79.5931 21.6471 78.7309 21.1936 77.9167 20.6454C77.2187 20.1784 76.4113 19.8738 75.4191 19.603C74.6185 19.3797 73.7563 19.2172 72.7299 19.1631L72.7436 19.1766Z" fill="#283E60"/>
<path d="M63.2801 29.2209C62.4727 29.1803 61.2958 29.2209 59.8314 29.4104C58.8461 29.5458 58.5656 30.5069 58.7024 31.0822C58.8393 31.6575 59.2293 31.5289 60.502 31.6575C61.2342 31.7319 62.3974 32.2125 63.7933 32.4155C64.8471 32.5644 66.0446 32.4223 67.1805 32.5509C68.3711 32.6863 69.5412 32.8081 70.5334 32.8284C71.9977 32.8555 73.2362 32.6863 74.2763 32.5712C76.2196 32.3546 77.465 32.2599 77.9919 32.1922C78.8609 32.0839 79.203 30.6828 78.9909 29.1735C78.8541 28.1988 78.5119 27.0753 78.2656 26.033C78.0192 24.9906 77.335 24.016 76.5207 23.3798C75.7064 22.7436 74.639 22.6082 73.5441 22.3984C72.5725 22.2089 71.5598 22.3578 70.4718 22.4661C69.4796 22.5676 68.5285 22.73 67.6047 23.1023C66.6262 23.4948 65.7093 23.8806 65.0319 24.5236C64.2586 25.2546 63.9302 26.0939 63.8618 27.0753C63.807 27.9349 63.6497 29.2412 63.2733 29.2276L63.2801 29.2209Z" fill="#015AA2"/>
<path d="M63.2801 29.2209C62.4727 29.1803 61.2958 29.2209 59.8314 29.4104C58.8461 29.5458 58.5656 30.5069 58.7024 31.0822C58.8393 31.6575 59.2293 31.5289 60.502 31.6575C61.2342 31.7319 62.3974 32.2125 63.7933 32.4155C64.8471 32.5644 66.0446 32.4223 67.1805 32.5509C68.3711 32.6863 69.5412 32.8081 70.5334 32.8284C71.9977 32.8555 73.2362 32.6863 74.2763 32.5712C76.2196 32.3546 77.465 32.2599 77.9919 32.1922C78.8609 32.0839 79.203 30.6828 78.9909 29.1735C78.8541 28.1988 78.5119 27.0753 78.2656 26.033C78.0192 24.9906 77.335 24.016 76.5207 23.3798C75.7064 22.7436 74.639 22.6082 73.5441 22.3984C72.5725 22.2089 71.5598 22.3578 70.4718 22.4661C69.4796 22.5676 68.5285 22.73 67.6047 23.1023C66.6262 23.4948 65.7093 23.8806 65.0319 24.5236C64.2586 25.2546 63.9302 26.0939 63.8618 27.0753C63.807 27.9349 63.6497 29.2412 63.2733 29.2276L63.2801 29.2209Z" fill="#2773B0"/>
<path d="M64.8129 30.6625C64.8676 29.9045 64.2723 29.2818 63.3349 29.2006C63.3144 29.2006 63.3007 29.2209 63.2801 29.2209C62.4727 29.1803 61.2958 29.2209 59.8314 29.4104C58.8461 29.5457 58.5656 30.5069 58.7024 31.0822C58.8393 31.6575 59.2293 31.5289 60.502 31.6575C60.94 31.7049 61.5353 31.8944 62.2332 32.0771C62.9859 32.2802 64.7034 32.5374 64.7582 31.7658C64.7582 31.7658 64.8061 30.6625 64.8061 30.6558L64.8129 30.6625Z" fill="#EE1C25"/>
<path d="M24.1811 74.1559C24.8449 73.9393 25.885 73.9732 27.2124 73.7972C28.102 73.6821 29.0737 73.0662 30.2164 72.9647C31.1607 72.8835 32.2008 72.9106 33.3024 72.8429C34.2741 72.782 35.3142 72.9173 36.3885 72.8632C37.3738 72.809 38.4071 72.8767 39.4745 72.8361C40.4735 72.7955 41.4931 72.5518 42.5469 72.518C43.6006 72.4842 44.5791 72.2811 45.6261 72.2473C46.673 72.2134 47.672 72.3826 48.7121 72.3555C49.7522 72.3285 50.7581 72.4774 51.7981 72.4503C52.8382 72.4232 53.8441 72.1863 54.8773 72.1593C55.9106 72.1322 56.9233 71.7532 57.9565 71.7329C58.9898 71.7126 60.023 72.254 61.0494 72.2337C62.0758 72.2134 63.1091 72.2337 64.1355 72.2202C65.1619 72.2066 66.1951 72.1525 67.2215 72.139C68.2479 72.1254 69.2812 71.8073 70.3007 71.787C71.3203 71.7667 72.3741 72.1457 73.3936 72.1254C74.4132 72.1051 75.4601 71.6719 76.4728 71.6584C77.4855 71.6449 78.5461 71.4215 79.552 71.4012C80.6058 71.3809 81.639 71.408 82.6381 71.3944C83.7055 71.3741 84.7456 71.9021 85.7378 71.8818C86.8189 71.8615 87.8316 71.2117 88.8101 71.1846C89.9118 71.1576 90.9656 71.6516 91.9099 71.6178C93.0663 71.5772 94.0927 71.2794 94.9822 71.232C96.4123 71.1576 97.5072 71.3538 98.0956 71.2455C99.122 71.0628 100.114 70.3657 101.209 70.21C102.304 70.0543 103.412 70.21 104.473 70.1085C105.595 70.0002 106.697 70.0746 107.71 70.0611C108.921 70.0475 110.057 69.7971 110.974 69.9663C112.369 70.2303 113.362 70.8936 113.601 71.7667C113.758 72.342 113.628 73.4114 113.724 74.7786C113.786 75.6517 114.196 76.6467 114.231 77.7635C114.258 78.6975 114.395 79.7128 114.395 80.7754C114.395 81.7365 114.326 82.7517 114.313 83.7873C114.292 84.7687 113.916 85.7637 113.875 86.7857C113.834 87.8077 113.67 88.7756 113.608 89.7841C113.546 90.7925 113.574 91.7943 113.492 92.7892C113.41 93.7842 113.204 94.7859 113.095 95.7741C112.985 96.7622 113.403 97.8587 113.259 98.8334C113.115 99.808 112.664 100.816 112.486 101.859C112.308 102.901 111.925 103.835 111.685 104.864C111.446 105.893 111.151 106.827 110.809 107.822C110.467 108.817 110.385 109.859 109.913 110.807C109.441 111.754 108.681 112.451 108.079 113.331C107.504 114.157 107.217 115.253 106.478 116.039C105.794 116.77 104.884 117.345 104.035 118.022C103.255 118.644 102.215 118.942 101.277 119.511C100.429 120.032 99.8063 121.047 98.8141 121.521C97.9177 121.947 96.8503 122.157 95.8239 122.543C94.8864 122.895 93.9763 123.497 92.9294 123.809C91.9646 124.093 90.9108 124.255 89.8502 124.499C88.8717 124.729 87.7769 124.628 86.7094 124.824C85.7172 125.007 84.6977 125.25 83.6234 125.399C82.6175 125.541 81.5911 125.771 80.5168 125.88C79.5041 125.988 78.5119 126.11 77.5471 126.198C76.5823 126.286 75.5217 126.157 74.55 126.232C73.5305 126.306 72.5314 126.164 71.5598 126.218C70.5402 126.279 69.5617 126.557 68.5969 126.59C67.5705 126.631 66.5852 126.949 65.6203 126.963C64.5939 126.976 63.6017 126.441 62.6369 126.428C61.6105 126.421 60.6183 126.455 59.6604 126.414C58.6271 126.374 57.6213 126.584 56.6701 126.516C55.6369 126.441 54.6515 126.326 53.7004 126.218C52.6672 126.096 51.6339 126.279 50.6965 126.123C49.6701 125.954 48.8079 125.203 47.8841 124.993C46.8646 124.763 45.7834 124.973 44.8802 124.702C43.8743 124.397 43.0464 123.768 42.1705 123.423C41.1989 123.037 40.2614 122.719 39.4266 122.286C38.496 121.805 37.6407 121.311 36.8606 120.79C35.9984 120.215 35.0336 119.829 34.3083 119.22C33.583 118.61 33.104 117.649 32.4197 116.912C31.7355 116.174 31.0717 115.504 30.4696 114.698C29.8674 113.893 29.1626 113.223 28.6357 112.363C28.1088 111.504 28.0336 110.475 27.582 109.588C27.1303 108.702 26.5282 107.937 26.145 107.016C25.7618 106.096 25.447 105.196 25.1323 104.255C24.8175 103.314 24.4617 102.414 24.2017 101.459C23.9417 100.505 24.0306 99.5034 23.839 98.5355C23.6474 97.5677 22.9905 96.6946 22.8605 95.7131C22.7305 94.7317 22.9974 93.73 22.9289 92.7486C22.8605 91.7672 22.8674 90.8061 22.7784 89.8991C22.6826 88.9109 22.2515 87.9972 22.1489 87.1038C22.0326 86.1088 21.9231 85.1613 21.8136 84.2746C21.6904 83.2594 21.9641 82.278 21.882 81.4116C21.7862 80.3557 21.2867 79.4285 21.3141 78.5892C21.3414 77.4792 21.6836 76.5655 22.0462 75.8277C22.4636 74.9884 23.1616 74.4876 24.2085 74.1424L24.1811 74.1559Z" fill="#283E60"/>
<mask id="mask1_175_3163" style="mask-type:luminance" maskUnits="userSpaceOnUse" x="24" y="73" width="86" height="51">
<path d="M109.803 75.7804C109.776 74.6569 108.709 73.2694 107.573 73.3032C106.765 73.3303 105.766 74.3726 104.541 74.4065C103.625 74.4335 102.571 73.6619 101.449 73.7026C100.491 73.7296 99.4779 74.1087 98.3967 74.1425C97.4251 74.1763 96.3918 74.0545 95.3312 74.0884C94.3459 74.1222 93.3331 74.5486 92.2794 74.5824C91.2872 74.6163 90.2471 74.1628 89.2002 74.1966C88.1532 74.2305 87.1679 74.0207 86.1278 74.0545C85.0877 74.0883 84.1229 74.8193 83.0897 74.8532C82.0564 74.887 81.0574 74.9073 80.0242 74.9412C78.9909 74.975 77.9987 75.1916 76.9655 75.2254C75.9322 75.2593 74.9058 74.5621 73.8726 74.596C72.8394 74.6298 71.8403 74.887 70.8139 74.9276C69.7875 74.9682 68.768 74.9412 67.7484 74.975C66.7289 75.0088 65.7025 75.0698 64.6829 75.1036C63.6633 75.1374 62.6438 75.442 61.6242 75.4826C60.6047 75.5232 59.5646 75.4149 58.5519 75.4488C57.5392 75.4826 56.4991 75.6045 55.4864 75.6383C54.4736 75.6721 53.413 75.1916 52.4003 75.2322C51.3876 75.2728 50.3544 75.7263 49.3485 75.7669C48.3426 75.8075 47.2752 75.6315 46.2693 75.6721C45.2634 75.7128 44.2028 75.7872 43.2038 75.8278C42.15 75.8684 41.1373 76.0918 40.1451 76.1324C39.0845 76.1798 38.0855 76.7348 37.107 76.7754C36.0258 76.8228 34.9789 76.2542 34.0141 76.2948C32.9056 76.349 31.9134 76.9717 30.9828 77.019C29.8127 77.08 28.7315 76.2678 27.8694 76.3219C26.0697 76.437 25.0023 76.8972 24.8449 76.9784C24.5575 77.1206 24.5096 78.2035 24.578 79.8888C24.6122 80.7281 24.667 81.7231 24.7902 82.8398C24.886 83.7468 25.0091 84.7282 25.1597 85.7773C25.2965 86.7113 25.4881 87.6792 25.666 88.6945C25.8371 89.6353 26.0697 90.6031 26.275 91.5913C26.4803 92.5795 26.7061 93.5 26.9456 94.4746C27.1851 95.4493 27.1098 96.4645 27.3698 97.4256C27.6299 98.3867 27.7667 99.3817 28.0609 100.322C28.3552 101.263 29.1695 102.055 29.4979 102.976C29.8264 103.896 30.1069 104.871 30.4833 105.771C30.8596 106.671 31.1333 107.68 31.5644 108.539C32.0229 109.46 32.6113 110.272 33.1108 111.077C33.6651 111.971 34.3425 112.682 34.9447 113.392C35.6084 114.177 35.9232 115.206 36.5732 115.883C37.2849 116.621 38.5029 116.763 39.2145 117.379C39.9809 118.042 40.6309 118.719 41.4315 119.247C42.2321 119.775 43.0122 120.37 43.8949 120.79C44.7776 121.21 45.5782 121.778 46.543 122.076C47.4462 122.36 48.411 122.557 49.4238 122.746C50.3475 122.922 51.2713 123.457 52.3045 123.565C53.2351 123.667 54.2684 123.213 55.3016 123.26C56.239 123.308 57.2176 123.233 58.2576 123.24C59.2019 123.254 60.1873 123.802 61.2205 123.788C62.1648 123.775 63.1501 123.423 64.1765 123.396C65.1277 123.369 66.1062 123.105 67.1257 123.057C68.1453 123.01 69.1375 122.854 70.1228 122.82C71.1082 122.787 72.1482 123.132 73.1336 123.105C74.1189 123.078 75.1522 123.118 76.1375 123.084C77.1229 123.051 78.1356 122.665 79.1209 122.617C80.1063 122.57 81.1532 122.82 82.1385 122.739C83.1239 122.658 84.1708 122.726 85.1493 122.611C86.1278 122.496 87.12 122.083 88.0848 121.914C89.0496 121.744 89.9871 121.243 90.9382 121.007C91.8893 120.77 93.1142 121.223 94.0379 120.892C94.9617 120.56 95.6733 119.599 96.556 119.152C97.4387 118.705 98.5473 118.584 99.3615 118.008C100.176 117.433 101.011 116.831 101.729 116.12C102.448 115.409 103.091 114.651 103.7 113.825C104.268 113.054 105 112.282 105.499 111.382C105.958 110.549 105.821 109.372 106.218 108.411C106.574 107.544 107.326 106.725 107.614 105.697C107.874 104.776 107.504 103.653 107.71 102.63C107.901 101.676 107.949 100.681 108.106 99.666C108.264 98.6507 108.565 97.7302 108.681 96.7217C108.798 95.7132 108.907 94.7386 108.996 93.7369C109.085 92.7352 109.407 91.7538 109.468 90.7588C109.53 89.7639 109.844 88.7486 109.886 87.7672C109.927 86.7858 109.756 85.7231 109.776 84.7553C109.803 83.7062 109.701 82.6977 109.708 81.7501C109.714 80.6672 109.845 79.6587 109.838 78.745C109.831 77.5673 109.824 76.5453 109.803 75.7398V75.7804Z" fill="white"/>
</mask>
<g mask="url(#mask1_175_3163)">
<path d="M110.611 75.151C110.583 73.9936 109.523 73.1611 108.353 73.1949C107.545 73.222 106.512 72.9174 105.301 72.9512C104.391 72.9783 103.371 73.0866 102.263 73.1204C101.312 73.1475 100.299 73.1611 99.2178 73.1949C98.253 73.222 97.2403 73.337 96.1797 73.3709C95.2012 73.4047 94.1953 73.7499 93.1484 73.7837C92.163 73.8176 91.1366 73.5401 90.0965 73.5739C89.0564 73.6078 88.0916 73.6484 87.0584 73.6822C86.0251 73.7161 85.0535 73.9936 84.0271 74.0274C83.0007 74.0612 82.0085 74.0274 80.9821 74.068C79.9557 74.1086 78.9635 74.1154 77.944 74.1492C76.9244 74.1831 75.9117 73.8717 74.8921 73.9056C73.8726 73.9394 72.8667 74.0003 71.8471 74.0342C70.8276 74.068 69.8285 74.3523 68.8158 74.3861C67.8031 74.42 66.7767 74.2372 65.764 74.2711C64.7513 74.3049 63.7317 74.2711 62.7122 74.3049C61.6926 74.3388 60.6867 74.7245 59.6809 74.7652C58.675 74.8058 57.6418 74.8667 56.6359 74.9005C55.63 74.9344 54.5899 74.7787 53.5841 74.8193C52.5782 74.8599 51.5518 75.1848 50.5528 75.2186C49.5537 75.2525 48.4931 74.975 47.4941 75.0156C46.4951 75.0562 45.4618 75.5232 44.4628 75.5571C43.4638 75.5909 42.41 75.645 41.4178 75.6857C40.3709 75.7263 39.3376 75.354 38.3591 75.3946C37.3054 75.442 36.2995 75.6857 35.3278 75.7263C34.2604 75.7736 33.2477 76.0241 32.2965 76.0714C31.2017 76.1256 30.1548 75.6247 29.2242 75.6789C28.0609 75.7398 27.055 76.1121 26.1997 76.1662C24.4138 76.2813 23.449 76.552 23.2847 76.6332C22.9905 76.7821 22.8536 77.6552 22.9289 79.3879C22.9631 80.2543 23.23 81.2492 23.3532 82.3999C23.4558 83.3339 23.4558 84.3559 23.6132 85.4253C23.7569 86.3864 23.7911 87.4084 23.9827 88.4508C24.1606 89.4186 24.5301 90.3865 24.7422 91.4085C24.9543 92.4306 25.0022 93.4187 25.2417 94.4205C25.4812 95.4222 25.4881 96.451 25.7549 97.4391C26.0218 98.4273 26.2134 99.4358 26.5145 100.41C26.8156 101.385 27.3356 102.306 27.6709 103.253C28.0062 104.201 28.622 105.094 29.0052 106.015C29.3884 106.935 29.4294 108.093 29.8674 108.979C30.3395 109.927 31.2222 110.624 31.7354 111.45C32.3034 112.37 32.9603 113.121 33.5829 113.852C34.2672 114.658 34.9446 115.382 35.6152 116.079C36.3474 116.844 36.6758 117.954 37.408 118.583C38.2017 119.267 39.1118 119.781 39.9329 120.33C40.7541 120.878 41.6436 121.474 42.5605 121.907C43.4774 122.34 44.4423 122.685 45.4344 122.996C46.365 123.287 47.453 123.112 48.4931 123.308C49.4442 123.491 50.3748 124.113 51.4286 124.228C52.3866 124.33 53.4404 123.863 54.5078 123.917C55.4726 123.964 56.4717 124.465 57.5323 124.479C58.5039 124.492 59.5235 124.621 60.5841 124.607C61.5558 124.594 62.5753 124.546 63.6359 124.513C64.6144 124.485 65.6271 124.323 66.6809 124.276C67.7347 124.228 68.7543 124.364 69.7738 124.33C70.7934 124.296 71.8266 123.714 72.8462 123.68C73.8657 123.646 74.9195 123.626 75.9322 123.585C76.9449 123.545 78.0329 124.032 79.0456 123.978C80.0583 123.924 81.1189 123.721 82.1248 123.639C83.1307 123.558 84.1434 122.942 85.1493 122.827C86.1552 122.712 87.2773 123.024 88.2695 122.854C89.2617 122.685 90.3223 122.469 91.3008 122.225C92.2793 121.981 93.2305 121.433 94.1816 121.095C95.1327 120.756 96.0428 120.249 96.946 119.788C97.8493 119.328 99.0194 119.233 99.8542 118.644C100.689 118.056 101.277 117.149 102.016 116.424C102.755 115.7 103.351 114.929 103.98 114.083C104.569 113.291 105.102 112.445 105.616 111.511C106.088 110.651 106.813 109.866 107.217 108.878C107.58 107.984 107.867 106.969 108.161 105.913C108.428 104.966 108.531 103.916 108.75 102.867C108.948 101.886 108.914 100.837 109.071 99.7878C109.229 98.7387 109.543 97.7911 109.667 96.7488C109.79 95.7064 109.728 94.6912 109.817 93.6556C109.906 92.6201 110.152 91.6048 110.214 90.5828C110.276 89.5608 110.248 88.4981 110.289 87.4897C110.33 86.4812 110.802 85.405 110.823 84.4101C110.85 83.3339 110.693 82.2848 110.7 81.3102C110.713 80.1934 110.426 79.1578 110.426 78.217C110.419 77.0055 110.611 75.9564 110.59 75.1239L110.611 75.151Z" fill="#FFF200"/>
<path d="M110.419 87.1377C110.625 82.1088 110.583 77.6417 110.529 75.151C110.501 73.9936 109.53 73.0798 108.36 73.1204C95.1738 73.5265 24.6259 75.7195 23.2026 76.4234C22.5868 76.728 22.7715 81.0665 23.7158 86.8128C37.018 90.2038 52.7698 85.9397 66.4893 87.4491C76.5891 88.5591 98.4925 88.8501 110.426 87.1377H110.419Z" fill="#FFF200"/>
</g>
<path d="M109.817 71.1644C109.975 70.3319 110.549 69.4182 110.741 68.3555C110.905 67.435 110.83 66.413 111.015 65.4316C111.199 64.4502 111.275 63.4688 111.453 62.528C111.651 61.5059 112.062 60.5651 112.246 59.6988C112.5 58.494 112.78 57.4991 112.985 56.8629C113.485 55.252 113.362 54.1555 114.641 53.8509C115.319 53.6885 116.455 53.7494 118.172 53.8103C119.089 53.8442 120.061 53.8915 121.067 53.8509C122.072 53.8103 123.024 54.0811 123.988 54.0405C124.953 53.9998 125.959 54.0405 126.89 54.0405C127.937 54.0405 128.908 53.9322 129.777 54.0608C130.893 54.23 131.96 54.2977 132.603 54.8324C133.63 55.6919 134.143 57.0862 133.835 58.2098C133.568 59.1641 132.562 60.0237 131.201 60.6464C130.297 61.0592 129.127 61.2826 127.704 61.3706C126.719 61.4315 125.767 61.6616 124.844 61.6887C123.831 61.7158 122.866 61.3706 121.97 61.3706C120.895 61.3706 119.924 61.797 119.103 61.7699C117.337 61.7225 117.508 60.6734 116.448 61.621C115.387 62.5686 116.372 62.6701 116.092 64.3216C115.941 65.1879 115.257 66.0881 115.059 67.0898C114.86 68.0916 115.066 69.1339 114.853 70.0205C114.566 71.205 114.108 72.1864 113.813 72.7617C113.211 73.953 112.151 74.0274 111.295 73.6619C110.529 73.3303 109.544 72.606 109.81 71.1712L109.817 71.1644Z" fill="#283E60"/>
<path d="M99.4779 120.194C98.4241 120.303 97.4251 120.181 96.5903 120.512C95.6255 120.891 95.0233 121.67 94.3459 122.293C93.6206 122.956 92.7105 123.463 92.2999 124.343C91.8894 125.223 91.4857 126.164 91.383 127.166C91.2872 128.086 91.9099 129.047 92.0468 130.049C92.2041 131.166 92.3752 132.08 92.8679 132.871C93.4153 133.751 93.9969 134.591 94.9275 135.064C95.7692 135.498 96.8229 135.362 97.9451 135.464C98.8757 135.545 99.8474 135.646 100.956 135.504C101.9 135.383 102.988 135.565 104.056 135.274C105.027 135.01 106.04 134.523 106.724 133.846C107.409 133.169 107.607 132.086 107.976 131.166C108.346 130.245 108.497 129.352 108.551 128.37C108.606 127.389 108.517 126.469 108.278 125.535C108.038 124.601 107.559 123.809 107.005 123.017C106.451 122.225 105.862 121.575 105 121.054C104.227 120.587 103.419 119.971 102.379 119.802C101.503 119.66 100.545 120.079 99.4779 120.194Z" fill="#283E60"/>
<path d="M50.4091 122.868C49.3554 122.976 48.5 123.274 47.6652 123.606C46.7004 123.985 45.7698 124.221 45.0924 124.844C44.3671 125.507 43.5802 126.184 43.1696 127.071C42.759 127.958 42.6427 128.946 42.5401 129.941C42.4443 130.861 42.8959 131.795 43.0327 132.797C43.1901 133.914 43.3612 134.807 43.8539 135.599C44.4013 136.479 44.8666 137.474 45.804 137.954C46.6457 138.388 47.7131 138.767 48.8353 138.868C49.7659 138.949 50.8334 138.679 51.9419 138.537C52.8862 138.415 53.9605 138.408 55.0279 138.117C55.9996 137.853 56.8686 137.163 57.5529 136.486C58.2372 135.809 58.3261 134.753 58.6956 133.833C59.0651 132.912 59.8041 132.127 59.8657 131.152C59.9273 130.178 59.7357 129.162 59.4962 128.235C59.2567 127.308 58.634 126.489 58.0798 125.697C57.5255 124.905 57.0465 123.971 56.1775 123.45C55.4043 122.983 54.3026 123.159 53.2557 122.99C52.3798 122.848 51.4834 122.76 50.416 122.868H50.4091Z" fill="#283E60"/>
<path d="M53.7552 92.3966C52.5167 92.823 51.3945 93.263 50.9634 94.285C50.635 95.0566 50.5734 96.2411 50.7581 97.6895C50.8745 98.5965 51.3124 99.6455 51.634 100.918C51.9214 102.035 51.8598 103.179 52.0446 104.221C52.2567 105.399 52.8452 106.434 53.0504 107.422C53.3173 108.708 53.6321 109.73 54.1589 110.482C54.7816 111.368 55.5548 111.808 56.985 111.585C58.4151 111.362 58.8462 110.739 59.0993 109.778C59.3183 108.945 59.2157 107.971 59.0241 106.766C58.8735 105.818 58.5519 104.796 58.3603 103.713C58.1893 102.712 58.1072 101.622 58.0661 100.573C58.0182 99.3071 57.9019 98.17 57.6761 97.121C57.3887 95.7876 57.0534 94.7047 56.5265 93.8857C55.7396 92.6471 54.8774 91.9973 53.7484 92.3899L53.7552 92.3966Z" fill="#283E60"/>
<path d="M70.944 91.8146C69.5686 91.6589 68.8091 91.977 68.2822 92.3358C67.639 92.7757 67.42 93.4525 67.5227 94.7656C67.5706 95.3544 67.6527 96.4712 67.5979 97.8384C67.5637 98.7725 67.3242 99.8148 67.3106 100.898C67.2969 101.92 67.6664 102.949 67.7211 103.95C67.7759 105.053 67.2284 106.191 67.4269 107.084C67.7074 108.37 68.3575 109.548 69.0828 109.886C70.3282 110.482 71.4093 110.089 71.9225 109.284C72.3057 108.681 72.4015 107.646 72.5726 106.468C72.6957 105.629 72.8873 104.681 72.9763 103.639C73.0584 102.671 72.7094 101.554 72.7847 100.437C72.86 99.3207 73.5305 98.3054 73.5169 97.2766C73.5032 96.1057 73.1952 94.9957 72.9694 94.1023C72.6478 92.8298 71.9773 91.9161 70.9509 91.8078L70.944 91.8146Z" fill="#283E60"/>
<path d="M86.7026 93.5405C85.3409 93.1818 84.0956 92.8975 83.2745 93.5405C82.4533 94.1835 82.0975 95.5169 82.0017 96.8096C81.9607 97.4052 81.947 98.4273 81.9196 99.6456C81.8991 100.519 82.1591 101.48 82.2002 102.468C82.2412 103.456 82.207 104.377 82.3507 105.277C82.5149 106.312 82.5081 107.321 82.8571 108.059C83.336 109.087 84.0682 109.494 85.0467 109.406C86.3537 109.29 87.4348 108.932 87.948 107.984C88.4338 107.091 88.5433 105.839 88.6596 104.708C88.776 103.578 88.5844 102.326 88.646 101.412C88.7075 100.498 88.8102 99.4425 88.8923 98.3596C88.9744 97.2767 89.0018 96.2411 88.7486 95.3477C88.468 94.346 87.859 93.8451 86.7026 93.5405Z" fill="#283E60"/>
<path d="M113.013 92.2478C114.121 92.2072 115.196 92.1734 116.236 92.2275C117.358 92.2885 118.377 92.6269 119.39 92.8299C120.499 93.0533 121.457 93.3511 122.394 93.7843C123.393 94.2513 124.187 94.786 124.939 95.5373C125.692 96.2886 126.568 96.8842 127.013 97.9333C127.382 98.8064 127.588 99.7675 127.765 100.735C127.943 101.703 128.142 102.644 128.217 103.598C128.292 104.553 128.032 105.602 128.121 106.516C128.224 107.565 128.655 108.492 128.922 109.311C129.25 110.333 129.77 111.016 130.639 111.436C131.577 111.89 132.487 112.431 133.472 112.6C134.458 112.769 135.696 112.478 136.565 112.979C137.325 113.419 137.817 114.36 138.29 115.524C138.597 116.282 138.851 117.237 138.981 118.455C139.097 119.558 138.666 120.384 138.372 121.196C138.023 122.137 137.769 123.051 137.01 123.653C136.25 124.255 135.327 124.533 134.362 124.844C133.459 125.142 132.494 125.196 131.508 125.311C130.523 125.426 129.558 125.555 128.621 125.521C127.553 125.487 126.609 125.189 125.774 125.034C124.59 124.81 123.366 125.068 122.415 124.668C121.361 124.222 120.43 123.511 119.684 122.672C119.021 121.927 118.644 120.878 118.24 119.687C117.933 118.773 117.837 117.704 117.686 116.458C117.556 115.375 117.508 114.347 117.419 113.365C117.317 112.255 117.187 111.206 117.009 110.265C116.797 109.148 116.051 108.363 115.51 107.558C114.97 106.752 114.463 105.866 113.348 105.439C112.527 105.128 111.487 104.959 110.241 104.898C109.147 104.844 108.237 104.519 107.443 104.011C106.587 103.463 105.801 102.793 105.349 101.913C104.897 101.033 104.692 100.004 104.692 99.0027C104.692 98.0009 105.014 97.0601 105.472 96.1532C105.896 95.3139 106.341 94.319 107.196 93.676C107.922 93.1277 108.9 92.6404 109.961 92.3358C110.83 92.0854 111.891 92.3088 112.999 92.2749L113.013 92.2478Z" fill="#283E60"/>
<path d="M113.266 95.5846C114.347 95.6184 115.332 95.9162 116.311 96.0719C117.392 96.2479 118.323 96.4983 119.226 96.8706C120.225 97.2835 121.149 97.6083 121.867 98.3122C122.586 99.0162 122.989 99.8554 123.366 100.891C123.742 101.927 124.481 102.834 124.652 103.964C124.816 105.033 124.467 106.211 124.618 107.301C124.768 108.39 125.432 109.399 125.74 110.407C126.075 111.497 126.301 112.533 127.013 113.352C127.492 113.9 128.361 113.798 129.319 113.934C130.16 114.049 130.906 114.773 131.645 115.03C132.891 115.456 133.548 116.228 133.623 117.724C133.684 118.847 133.294 119.558 132.555 120.025C131.864 120.458 130.947 120.831 129.935 120.864C129.031 120.891 128.012 120.919 127.129 120.743C126.075 120.54 125.309 119.7 124.679 119.402C123.824 118.99 123.044 118.482 122.38 117.602C121.812 116.851 121.388 115.971 120.991 114.956C120.642 114.062 120.067 113.169 119.869 112.126C119.691 111.165 119.712 110.13 119.671 109.087C119.63 107.917 119.246 106.996 118.932 106.164C118.535 105.114 118.261 104.052 117.46 103.476C116.66 102.901 115.606 102.664 114.484 102.475C113.567 102.319 112.506 102.089 111.377 102.13C110.07 102.177 109.29 101.967 108.811 101.284C108.278 100.519 108.421 99.5982 108.798 98.5897C109.119 97.7234 109.66 97.0669 110.563 96.5051C111.329 96.0313 112.123 95.5778 113.252 95.6184L113.266 95.5846Z" fill="#5C6D87"/>
<path d="M56.287 49.1672C54.0153 47.7729 53.9674 48.91 54.2274 49.6275C54.4464 50.2298 55.9996 51.3872 57.0739 51.3399C58.0593 51.2992 57.0055 49.6004 56.287 49.1604V49.1672Z" fill="#283E60"/>
<path d="M73.0446 52.1453C74.2216 52.1317 76.028 51.1774 75.5148 50.5006C75.0837 49.932 72.4562 49.8643 71.8882 50.8322C71.3682 51.7189 72.4356 52.1588 73.0446 52.152V52.1453Z" fill="#283E60"/>
<path d="M69.4386 70.7109C69.3907 69.7566 68.7133 68.7278 68.0837 67.7193C67.5432 66.8529 66.7973 66.0543 65.9283 65.3368C65.114 64.66 64.3134 63.7733 63.287 63.374C62.2606 62.9747 61.1111 63.1439 59.9957 63.1439C58.8804 63.1439 57.984 63.3605 57.1286 63.462C56.027 63.5906 55.1716 63.8343 54.371 64.1118C53.3583 64.4637 52.3114 64.484 51.6203 65.0458C50.8813 65.6482 50.3955 66.5145 49.8138 67.32C48.1647 66.9815 49.0338 65.946 47.4942 64.863C46.6594 64.2742 45.4687 63.9493 44.3465 63.5703C43.3201 63.2251 42.2048 63.0288 41.0278 63.1506C40.1109 63.2454 39.2145 63.55 38.3181 63.8613C37.4218 64.1727 36.4501 64.3419 35.6564 64.8224C34.8626 65.303 33.9731 65.8377 33.323 66.4739C32.625 67.1575 32.0708 68.0239 31.6739 68.8158C31.2428 69.6686 31.0239 70.6771 31.0512 71.6043C31.0786 72.5925 31.5165 73.4792 31.8039 74.3117C32.1187 75.2254 32.7003 75.8887 33.3025 76.5791C33.9046 77.2694 34.5273 77.8312 35.4032 78.2644C36.1901 78.6569 37.0044 79.0495 38.0034 79.1984C38.934 79.3405 39.9125 79.1646 40.9457 79.0224C41.9242 78.8871 43.0259 79.1104 43.9702 78.8126C44.9829 78.4945 45.7903 77.7229 46.5978 77.3236C47.8295 76.7144 49.0338 76.3489 49.2938 75.8752C49.7796 74.9953 49.4238 76.1256 51.4355 77.1273C52.1403 77.4793 53.1325 77.5943 54.4805 77.7771C55.3564 77.8989 56.3691 78.393 57.6008 78.3727C58.6956 78.3591 59.7288 78.2644 60.6526 78.1087C61.7406 77.926 62.6165 77.2965 63.4786 76.9649C64.5187 76.5655 65.4493 76.2136 66.1883 75.6721C67.1052 75.002 67.81 74.2711 68.2959 73.5333C68.9596 72.5181 69.507 71.4825 69.466 70.6974L69.4386 70.7109Z" fill="#283E60"/>
<path d="M65.2577 70.9275C62.4796 68.2066 60.8784 66.4062 58.2029 66.4062C55.5274 66.4062 53.4541 67.0695 53.0846 69.716C52.7151 72.3624 52.3045 74.1222 55.8627 74.7855C59.4209 75.4488 59.5714 74.4538 61.2616 73.6822C62.9517 72.9106 62.9312 73.0054 64.1834 72.7617C64.9429 72.6128 65.8393 71.496 65.2577 70.9275Z" fill="white"/>
<path d="M46.8441 69.9054C46.8441 69.9054 44.2644 67.8275 41.5957 67.5433C38.9271 67.259 34.5273 68.3961 35.2936 71.699C36.06 75.002 36.2379 75.2118 40.4462 75.002C46.1735 74.7177 46.8441 69.9054 46.8441 69.9054Z" fill="white"/>
<path d="M64.8062 46.6562C63.7661 46.2163 60.3311 49.817 60.0095 51.5633C59.6878 53.3095 62.247 55.3603 63.205 55.8341C64.163 56.3079 68.0017 54.2503 68.3233 52.6733C68.6449 51.0962 65.9215 47.1368 64.8062 46.663V46.6562Z" fill="#67778F"/>
<path opacity="0.68" d="M63.7729 48.4701C63.4376 48.8018 60.2421 50.8323 60.81 53.3839C61.3779 55.9356 61.6722 58.67 64.724 57.3502C67.7758 56.0304 69.9108 55.3671 68.0359 52.389C66.161 49.4109 64.4366 47.8068 63.7729 48.4701Z" fill="#5C658A"/>
<path d="M67.7827 25.945C65.4836 26.0804 65.1004 29.5322 67.7348 29.5322C69.6987 29.5322 70.4103 25.7961 67.7827 25.945Z" fill="#FFF200"/>
</g>
<defs>
<clipPath id="clip0_175_3163">
<rect width="117.708" height="120.132" fill="white" transform="translate(21.2867 18.7502)"/>
</clipPath>
</defs>
</svg>
